<?xml version="1.0" encoding="utf-8"?>
<!-- Generator: Adobe Illustrator 26.5.0, SVG Export Plug-In . SVG Version: 6.00 Build 0)  -->
<svg version="1.1" id="Layer_1" xmlns="http://www.w3.org/2000/svg" xmlns:xlink="http://www.w3.org/1999/xlink" x="0px" y="0px"
	 viewBox="0 0 1024 1024" style="enable-background:new 0 0 1024 1024;" xml:space="preserve">
<style type="text/css">
	.st0{fill:#F39020;}
	.st1{fill:#FFFFFF;}
</style>
<path class="st0" d="M899.4801636,1024H124.5198593C55.7494392,1024,0,968.2505493,0,899.4801636V124.5198593
	C0,55.7494392,55.7494392,0,124.5198593,0h774.9603271C968.2505493,0,1024,55.7494392,1024,124.5198593v774.9603271
	C1024,968.2505493,968.2505493,1024,899.4801636,1024z"/>
<g>
	<polygon class="st1" points="401.503418,505.6738586 401.503418,180.2125397 276.9786377,252.2375641 276.9786377,304.8534546 
		276.8625793,293.348114 276.8625793,505.6738586 	"/>
	<path class="st1" d="M581.399353,384.2684021l-107.8247986-0.7496338v122.1550903l107.8247986,3.2354126
		c22.661438,0,41.097229,18.4367371,41.097229,41.098114v128.0415649c0,22.6613159-18.435791,41.0976562-41.097229,41.0976562
		H442.6006165c-22.6613159,0-41.0971985-18.4363403-41.0971985-41.0976562V574.4926758H276.8625793v103.5562744
		c0,91.3884277,74.3500366,165.7385254,165.7380371,165.7385254H581.399353
		c91.3880005,0,165.7380981-74.3500977,165.7380981-165.7385254V550.0073853
		C747.1374512,458.6184692,672.7873535,384.2684021,581.399353,384.2684021z"/>
</g>
</svg>
