<?xml version="1.0" encoding="utf-8"?>
<!-- Generator: Adobe Illustrator 25.3.1, SVG Export Plug-In . SVG Version: 6.00 Build 0)  -->
<svg version="1.1" id="Layer_1" xmlns="http://www.w3.org/2000/svg" xmlns:xlink="http://www.w3.org/1999/xlink" x="0px" y="0px"
	 viewBox="0 0 4321.4 2155.3" style="enable-background:new 0 0 4321.4 2155.3;" xml:space="preserve">
<style type="text/css">
	.st0{fill:#FFFFFF;}
	.st1{fill:#FFF685;}
	.st2{fill:#ED1C24;}
	.st3{fill:#FAA627;}
</style>
<ellipse class="st0" cx="3514.7" cy="1107" rx="521.3" ry="715.3"/>
<path class="st1" d="M3309.4,154.4c19.1-7.8,39.8-14.6,65.2-21.6c92.7-25.4,127.4-72.1,140.2-100.6c12.8,28.5,47.4,75.2,140.2,100.6
	c25.4,7,46.1,13.8,65.2,21.6c63.6,25.9,116.3,57.8,160.7,97.3l-157.5,190c-0.1,0.1-0.1,0.2-0.1,0.2c-64-37.8-134.5-58.8-208.5-58.8
	c-74,0-144.4,21-208.4,58.8c0-0.1-0.1-0.1-0.1-0.2l-157.5-190C3193.1,212.2,3245.7,180.3,3309.4,154.4"/>
<path class="st2" d="M3295,1292c4,6.4-4,13.6-9.9,8.8c-58.4-46.3-95.8-117.9-95.8-198.1c0-102.5,61.1-190.8,148.9-230.5
	c7.1-3.2,13.1,6.2,7.2,11.2c-59.1,51-97.9,136.8-97.9,234.1C3247.4,1183.3,3265.2,1243.9,3295,1292 M3781.9,1117.5
	c0-97.3-38.8-183.1-97.9-234.1c-5.9-5.1,0.1-14.4,7.2-11.2c87.8,39.7,148.9,128,148.9,230.5c0,80.3-37.4,151.8-95.8,198.1
	c-5.9,4.7-13.9-2.4-9.9-8.8C3764.1,1243.9,3781.9,1183.3,3781.9,1117.5 M3514.6,833.5c-8.6,11-20.8,17.9-34.4,17.9
	c-9.1,0-18-3.2-25.2-8.8c-7.7-5.8-13.5-14-17.1-22.9c-2.9-7-4.4-14.6-4.7-22.2c-0.1-3.2,4.3-4.2,5.6-1.3c7,15,21.5,25.3,38.3,25.3
	c14.3,0,26.9-7.5,34.7-18.9c0.7-1,1.7-1.5,2.8-1.5c1.1,0,2.1,0.5,2.8,1.5c7.8,11.5,20.4,18.9,34.7,18.9c16.8,0,31.3-10.3,38.3-25.3
	c1.4-2.9,5.7-1.9,5.6,1.3c-0.3,7.6-1.8,15.2-4.7,22.2c-3.6,8.9-9.4,17-17.1,22.9c-7.2,5.5-16.1,8.8-25.2,8.8
	C3535.4,851.3,3523.2,844.4,3514.6,833.5 M3671.4,1373.6c-29.9,9.5-61.8,14.1-94.8,12.9c-10.2-0.4-20.4-1.3-30.3-2.8
	c-0.5-0.1-1.1,0.2-1.4,0.6l-24.2,38c-1.4,2.1-3.6,3.2-5.8,3.2c-2.2,0-4.5-1.1-5.8-3.2l-24.2-38c-0.3-0.5-0.8-0.7-1.4-0.6
	c-9.9,1.4-20,2.4-30.3,2.8c-33,1.2-65-3.4-94.8-12.9c-3.2-1-2.2-5.8,1.1-5.5c1.3,0.1,2.4,0.2,3.4,0.3c32.3,2.1,64-1.8,94.1-10.9
	c1.2-0.4,1.3-2,0.2-2.6c-95.9-50-160-153.7-155.9-271.1c2.8-77.9,35.1-147.7,85.6-198.3c3.8-3.9,10,0.9,7.4,5.6
	c-33.4,59.6-47.8,132.5-36.3,208.1c13.3,86.9,58.4,160.6,120.2,208.8c0.9,0.7,2.3,0,2.3-1.1l-8-425.5c0-2.1,1.3-3.9,3.2-4.5
	c14.7-4.8,26.4-14.6,35.7-25.5c0.9-1.1,2.2-1.6,3.5-1.6c1.3,0,2.6,0.5,3.5,1.6c9.4,10.8,21.1,20.7,35.7,25.5c2,0.6,3.3,2.5,3.2,4.5
	l-8,425.5c0,1.2,1.3,1.9,2.3,1.1c61.8-48.3,106.9-122,120.2-208.8c11.6-75.6-2.9-148.5-36.3-208.1c-2.7-4.7,3.5-9.5,7.4-5.6
	c50.5,50.6,82.8,120.3,85.6,198.3c4.2,117.4-59.9,221.1-155.9,271.1c-1.1,0.6-1,2.2,0.2,2.6c30.1,9,61.8,13,94.1,10.9
	c0.9-0.1,2.1-0.2,3.4-0.3C3673.6,1367.8,3674.6,1372.6,3671.4,1373.6"/>
<path class="st2" d="M3409.4,329.7c-0.7,4.9-1.5,7.2-2.3,6.9c-0.9-0.3-1.6-2.6-2.1-7.2c-0.7-8-1.9-16.2-3.6-24.7
	c-1.7-8.5-4-16.9-6.6-25.3c-2.7-8.3-5.9-16.5-9.6-24.4c-3.7-7.9-8-15.2-12.9-22c-2.3-3.3-2.7-6.8-1.3-10.4c0.9-3.8,1.9-7.6,3.1-11.2
	c1.2-3.6,2.3-7.4,3.1-11.2c0.7-2.3,1.4-3.6,2.1-4c0.7-0.4,1.6,0.4,2.9,2.5c5.7,8.9,10.8,18.6,15.1,29.2c4.3,10.6,7.8,21.6,10.3,33.1
	c2.5,11.5,4,23.1,4.4,34.8C3412.3,307.4,3411.5,318.7,3409.4,329.7"/>
<path class="st2" d="M3515.2,228.1c-3.5,5.2-7.7,8.6-12.8,10.3c-5,1.6-10.4,0-16.2-4.8c-1.4-1.4-2.2-2-2.3-1.7
	c-0.2,0.3-1,1.2-2.6,2.7c-3.1,3.6-6.3,6.1-9.6,7.3c-0.9,0.4-1.3,0.6-1.4,0.7c-0.1,0.1,0,0.7,0.4,2c4.5,14.1,7.3,28.3,8.5,42.7
	c1.1,14.4,0.2,29.1-2.7,44c-0.9,4-1.6,5.8-2.2,5.5c-0.6-0.3-1.1-2.4-1.4-6.2c-1.9-20-5.5-37.9-10.7-53.8
	c-5.2-15.9-12.5-30.4-21.9-43.4c-2.4-3.5-3.2-7-2.4-10.7c1-3.6,2.2-7.4,3.4-11.3c1.2-3.9,2.6-8,4.2-12.4c0.5-1.4,1-2.3,1.3-2.7
	c0.3-0.4,1,0,1.8,1.4c2.6,3.1,5.9,6.1,9.8,9c3.9,2.9,7.9,4.5,11.9,4.8c2.3,0.2,4.4-0.2,6.4-1c2-0.9,3.9-2.1,5.6-3.6
	c1.7-1.6,3.2-3.3,4.4-5.2c1.2-1.9,2.3-3.9,3.1-6c0.9-2.4,1.6-3.4,2.2-3c0.6,0.4,1.4,1.4,2.5,3c1.6,3,3.3,5.4,5.2,7.4
	c1.9,2,4.7,3,8.3,3c7.1,0,12.2-3.6,15.4-10.7c0.7-1.9,1.3-2.9,2-3c0.6-0.1,0.8,1,0.7,3.3c-0.4,5.6-1.4,11.2-3.3,17.1
	C3520.8,218.4,3518.3,223.6,3515.2,228.1"/>
<path class="st2" d="M3554.2,282c-1.7,4.5-3.8,8.6-6.3,12.2c-3,3.6-5.3,5.5-7.2,5.6c-1.8,0.1-4.5-0.8-7.9-2.7
	c-2.6-1.2-5-2.4-7.2-3.6c-2.2-1.2-4.3-2.4-6.4-3.6c-1.7-1-2.6-1.8-2.6-2.3c0-0.5,0.3-1.7,1-3.6c1.7-3.8,3.4-7.7,5.1-11.6
	c1.6-3.9,3.3-7.8,5.1-11.6c1-2.3,2-3.5,3-3.6c1-0.2,2.4,0.3,4.3,1.3c2.9,1.6,6,3.3,9.1,5.1c3.1,1.8,5.9,3.9,8.3,6.4
	c1.9,1.9,2.8,3.8,2.7,5.7C3555.3,277.4,3554.9,279.6,3554.2,282"/>
<path class="st2" d="M3659.2,213.5c0,2.8-0.2,5.3-0.7,7.4c-0.4,2.2-1.5,4.3-3.3,6.4c-12.2,14.8-21.4,30.7-27.6,47.8
	c-6.3,17.1-10.9,35.1-13.8,54.1c-0.9,5-1.9,7.5-3,7.3c-1.1-0.2-2-2.8-2.7-7.8c-3.6-33.5-15.6-64.1-35.9-91.7
	c-1.4-2.1-2.3-3.9-2.6-5.6c-0.4-1.6-0.3-3.8,0.3-6.4c0.5-3.3,1.2-6.9,2-10.7c0.8-3.8,1.6-8.1,2.5-12.8c0.5-2.8,1.6-3,3.1-0.8
	c18.1,27.8,29.7,53.3,34.9,76.6c0.7,2.1,1.4,2.1,2.1,0c1.4-6.8,3.4-13.7,6.1-20.7c2.7-7,5.8-14,9.4-21c3.6-7,7.5-13.7,11.9-20.3
	c4.3-6.6,8.9-12.7,13.5-18.2c1.7-2.1,2.8-3,3.3-2.7c0.4,0.3,0.7,1.5,0.7,3.8V213.5z"/>
<path d="M4281.3,1014.7c-3.7,5.3-7.9,11.3-8.7,19c-0.5,5.2,0.7,10.1,1.7,14.4c0.5,2.2,1.1,4.3,1.3,6.3c1.9,13.9-7.6,27.5-16.7,39.1
	c-7.5,9.6-15.2,19.6-24.2,27.2c-2.6,2.2-5.4,4.2-8.3,6.4c-4.4,3.3-8.9,6.7-13.1,10.8c-1.4-3.4-3-6.4-5-8.9
	c9.8-18.4,17.6-38.8,23.9-55.4c3.4-9.1,7.3-19.4,7.2-30.5c0-3-0.3-5.9-0.6-8.7c-0.3-3.1-0.7-6-0.5-8.8c0.3-8.4,4.4-16.3,8.8-24.7
	c5.4-10.5,11.1-21.3,9.8-34.1c-1.1-11.5-7.3-20.3-13.4-28.8c-5.6-8-11-15.5-10.9-24.2c0-3.5,0.9-7.1,1.9-11c1.4-5.5,2.7-11.2,2-17.3
	c6.2-1,11.9-4.1,17-7.5c3.6-2.4,7-5.2,10.3-7.9c4.1-3.4,8-6.5,12.2-9c0.6-0.4,2.5-1.5,3.7-1.5h0c1.7,0,4.5,4,4.6,9
	c0.1,4.1-0.9,8.3-1.9,12.8c-0.6,2.4-1.1,4.7-1.5,7.1c-3,17.3,1.1,35.7,11.2,49.1c1.9,2.5,4,4.9,6,7.2c5.6,6.4,10.4,11.9,10.6,18.9
	c0.1,5.1-2.5,10.4-5.3,15.5C4296.8,991.3,4289.4,1003.2,4281.3,1014.7 M4229,1201.5c0,4.1-1.8,8.4-3.8,12.9
	c-1.8,4.2-3.6,8.5-4.5,13.4c-2.1,12.6,3.1,23.1,8.1,33.3c4.1,8.2,7.9,16,7.4,24.2c-0.6,9.1-6.4,17-12.6,25.4
	c-6.2,8.4-12.6,17-14.8,28c-0.7,3.7-0.9,7.2-1.1,10.7c-0.1,2.6-0.3,5.1-0.6,7.4c-1.3,8.7-6,16.8-10.4,24.6
	c-11.9,20.8-25.4,44.1-42.3,62.6c-5.6-0.8-10.7,0.9-15.4,4c2.6-16.2,1.6-33.8-3.2-51.3c-0.8-2.7-1.6-5.4-2.5-8.1
	c-2.8-8.7-5.5-17-4-25.1c1-5.3,3.7-10.5,6.6-16c4.3-8.3,8.8-16.8,8-27c-0.5-6.1-2.9-11.2-5-15.8c-1.8-3.8-3.4-7.4-3.9-11
	c-0.9-7.7,3.4-15.5,8-23.8c2-3.6,4.1-7.3,5.8-11.2c7-15.8,7.5-35.3,2-54.2c10.2-9.6,18-22.1,22.4-36c0.9-2.7,1.6-5.3,2.2-7.9
	c0.1-0.5,0.3-1.1,0.4-1.6c2.9-11.9,6.6-26.7,14.6-27.6c5.1-0.6,9.8,6,12.1,12.3c1.1,3.2,2,6.5,2.8,10.1c1.5,6,3,12.1,6.1,17.8
	c2.4,4.5,5.6,8.4,8.7,12.1C4224.8,1189.7,4229.1,1194.9,4229,1201.5 M4233.3,1229.9c0.6-3.4,2.1-6.9,3.6-10.6
	c2.3-5.3,4.5-10.8,4.7-17.1c6.8-0.1,13.3-2.3,18-4.4c4-1.8,7.7-4,11.4-6.2c4.6-2.7,8.9-5.2,13.4-6.9c0.7-0.3,2.8-1,3.9-0.9
	c1.7,0.3,3.8,4.7,3.1,9.6c-0.5,4-2.2,8.1-3.9,12.3c-0.9,2.2-1.8,4.5-2.6,6.8c-5.8,16.6-4.5,35.4,3.3,50.3c1.5,2.8,3.2,5.5,4.8,8.1
	c4.5,7.2,8.4,13.4,7.5,20.3c-0.7,5.1-4.2,9.9-7.6,14.4c-8.5,11.1-17.7,21.7-27.5,31.7c-4.5,4.6-9.6,9.9-11.6,17.4
	c-1.4,5.1-0.9,10.1-0.6,14.5c0.2,2.3,0.4,4.4,0.3,6.4c-0.4,14-11.9,25.9-22.6,36c-8.9,8.3-18.2,16.9-28.2,23c-3,1.8-6,3.3-9.2,5
	c-5.7,3-11.6,6-17.1,10.3c-2.1,1.6-4.3,3.6-6.6,5.8c-1-2.2-2.3-4.1-3.8-5.8c17-19.2,30.6-42.9,41.8-62.4c4.8-8.4,10.3-18,12-29
	c0.5-3,0.6-5.9,0.7-8.7c0.2-3.1,0.3-6.1,0.9-8.8c1.6-8.2,7-15.4,12.6-23c7-9.5,14.3-19.3,15.1-32.1c0.7-11.5-4-21.2-8.6-30.6
	C4235.9,1246.8,4231.8,1238.5,4233.3,1229.9 M4191.6,1545.1c4.4-0.1,8.7-0.7,12.9-1.2c5.3-0.7,10.2-1.3,15.1-1.1
	c0.7,0,3,0.1,3.9,0.7c1.5,0.9,1.6,5.8-0.9,10c-2.1,3.5-5.2,6.6-8.5,9.8c-1.7,1.7-3.5,3.4-5.1,5.2c-11.8,13-18.1,30.8-16.7,47.6
	c0.3,3.2,0.8,6.3,1.2,9.3c1.3,8.4,2.5,15.6-1.1,21.6c-2.6,4.4-7.7,7.5-12.7,10.3c-12.2,6.8-24.8,12.9-37.7,18.4
	c-5.9,2.5-12.7,5.3-17.5,11.4c-3.3,4.1-4.8,8.9-6.2,13.1c-0.7,2.1-1.4,4.2-2.2,6c-5.8,12.8-21.1,19.2-35,24.2
	c-11.5,4.1-23.3,8.4-35,10.1c-3.4,0.5-6.8,0.7-10.4,1c-6.4,0.5-13.1,1-19.8,2.8c-3.4,0.9-9.7,3.1-16.2,6.5c0.2-2.6,0-5.1-0.5-7.4
	c25.7-10.7,49.1-28.3,70-44.1c7.7-5.8,16.5-12.5,22.4-21.9c1.6-2.6,2.9-5.2,4.1-7.7c1.4-2.8,2.7-5.4,4.3-7.8
	c4.7-6.9,12.4-11.4,20.6-16.2c10.2-6,20.7-12.1,26.5-23.6c5.2-10.3,4.6-21.1,4.1-31.5c-0.5-9.8-1-19,3.7-26.3
	c1.9-2.9,4.6-5.5,7.5-8.3c4.2-4,8.4-8.1,11.1-13.9C4178.5,1544.3,4184.7,1545.3,4191.6,1545.1 M3990.8,1837.3
	c4.2,1.3,8.4,2.2,12.6,3.1c5.2,1.1,10.1,2.2,14.6,4c0.7,0.3,2.7,1.1,3.4,2c1.1,1.4-0.4,6-4.1,9.2c-3.1,2.6-7.1,4.5-11.2,6.5
	c-2.2,1-4.4,2.1-6.5,3.2c-15.5,8.4-27.2,23.1-31.5,39.4c-0.8,3.1-1.4,6.2-1.9,9.2c-1.5,8.3-2.8,15.5-8.2,20
	c-3.9,3.3-9.7,4.5-15.4,5.5c-13.7,2.4-27.7,4-41.7,4.9c-6.4,0.4-13.7,0.8-20.3,5c-4.4,2.8-7.5,6.8-10.2,10.3
	c-1.4,1.8-2.7,3.5-4.1,4.9c-9.7,10.1-26.3,11.1-41,11.3c-12.2,0.1-24.8,0.3-36.4-2.1c-3.4-0.7-6.7-1.6-10.2-2.5
	c-6.2-1.7-12.6-3.4-19.6-3.9c-7.4-0.6-29.2-0.2-40.4,7.8c-2.3,1.7-4.4,3.1-6.5,4.1c-12.7,5.7-53.4,21.5-88.7,10
	c13.7-5.8,27.9-9.5,38.4-11.8c6.9-1.5,12.7-5.6,16.5-11.2c4.3,0.6,9,0.9,14.2,0.9c40.6,0,105-16.1,131.8-24.6
	c9.2-3,19.7-6.3,28.4-13.3c2.3-1.9,4.4-3.9,6.4-5.9c2.2-2.2,4.3-4.3,6.6-5.9c6.8-4.9,15.5-6.6,24.8-8.5c11.6-2.3,23.5-4.6,32.8-13.5
	c8.3-8,11.3-18.4,14.2-28.4c2.7-9.4,5.3-18.2,12.1-23.6c2.7-2.1,6.2-3.7,9.8-5.4c5.2-2.4,10.6-4.9,15-9.5
	C3978.7,1832.2,3984.2,1835.2,3990.8,1837.3 M3581.6,2002.9c-0.7-1.1-1.4-2.3-2.3-3.5c-4.6-6.3-10.6-11.4-18-15.4
	c-1.5-0.8-3.1-1.6-4.8-2.5c20.9-26.7,46.9-52.6,77.6-77.3c2.6-2.1,3-5.8,0.9-8.3c-2.1-2.6-5.8-3-8.3-0.9
	c-16.6,13.4-32,27.1-45.9,41.2c-7.3-7.6-25.6-20.4-66.1-20.4c-40.5,0-58.8,12.8-66.1,20.4c-13.9-14.1-29.2-27.8-45.9-41.2
	c-2.6-2.1-6.3-1.6-8.3,0.9c-2.1,2.6-1.6,6.3,0.9,8.3c30.7,24.7,56.7,50.6,77.6,77.3c-1.7,0.8-3.3,1.7-4.8,2.5
	c-7.4,4-13.5,9.2-18,15.4c-0.9,1.2-1.6,2.4-2.3,3.5c-19.5-21.8-56.1-32.5-77.8-37.2c-6.9-1.5-11.9-7.7-11.9-14.8v-51.9
	c0-8.4,6.8-15.2,15.2-15.2h57.5c12.7,0,17.4,0,38.7-4.4c8.5-1.7,15.1-3.9,20.9-5.9c8.5-2.8,15.2-5.1,24.7-4.7
	c9.1-0.4,15.7,1.9,24.3,4.7c5.8,1.9,12.4,4.1,20.9,5.9c21.2,4.4,26,4.4,38.7,4.4h57.5c8.4,0,15.2,6.8,15.2,15.2v51.9
	c0,7.1-5,13.3-11.9,14.8C3637.7,1970.4,3601.1,1981.1,3581.6,2002.9 M3694.4,2049.2c12.4-2,18.4,0.2,19.9,3
	c1.7,3.1-0.3,10.5-8.9,20.1c-0.1,0.2-8.8,10.1-23.6,20.4l-19.1,0c-63.2,2.9-92-21-104.5-38.3l13.4-17.4
	C3592.6,2049.1,3630,2059.3,3694.4,2049.2 M3686.7,2103.7c12.2-8.2,20.7-16.4,24.8-20.6c23.1,9.8,58,17,107,9.2l-29.3,14
	c-1.7,0.8-2.9,2.3-3.3,4.2c-0.4,1.8,0.1,3.7,1.4,5.1l19.7,22.3c-29,4.7-112.1,14.8-152.9-15c-0.2-0.1-0.7-0.5-0.6-1.4
	c0.1-0.3,0.3-1.2,1.3-1.5c11.7-4.1,21.9-9.7,30.4-15.3 M3520.1,1971.9h-10.7c-8.3-0.4-17.2,1.8-25.3,4.8
	c-8.3-10.8-17.4-21.5-27.4-32c4.8-5.2,19.8-17.1,57.9-17.1c37.9,0,53.1,11.9,57.9,17.1c-9.9,10.5-19,21.2-27.3,31.9
	C3537.1,1973.6,3528.3,1971.5,3520.1,1971.9 M3528.8,2056.5l-14.1-3.8l-14.1,3.8c-6.2,1.7-12.7,0.3-15.5-3.3l-28.8-37.5
	c-1.1-1.4,0.2-5,3.3-9.2c3.5-4.8,8.2-8.8,14.1-12c7.5-4.1,21.7-10.7,33.7-10.7c0.5,0,1.1,0,1.6,0l0.2,0l11.3,0
	c12.4-0.6,27.4,6.4,35.3,10.6c5.8,3.1,10.6,7.2,14.1,12c3.1,4.2,4.3,7.8,3.3,9.2l-28.8,37.5
	C3541.4,2056.7,3534.9,2058.2,3528.8,2056.5 M3366.4,2092.7h-18.8c-14.8-10.3-23.5-20.3-23.7-20.5c-8.5-9.5-10.5-16.9-8.8-20
	c1.5-2.8,7.5-5,19.9-3c64.3,10,101.7-0.2,122.8-12.2l13.4,17.4C3458.7,2071.7,3429.9,2095.7,3366.4,2092.7 M3375.6,2121.4
	c0.1,0.9-0.4,1.3-0.6,1.4c-40.8,29.8-123.9,19.7-152.9,15l19.7-22.3c1.2-1.4,1.7-3.3,1.4-5.1c-0.4-1.8-1.6-3.4-3.3-4.2l-29.3-14
	c49,7.8,83.9,0.5,107-9.2c4.1,4.3,12.7,12.5,24.8,20.6v0.9h1.3c8.5,5.6,18.7,11.1,30.4,15.3
	C3375.3,2120.2,3375.5,2121.1,3375.6,2121.4 M3132.8,1948.9c-7.4-6.9-14.3-14.8-21.1-22.4c-6.9-7.9-14.1-16.1-22.1-23.5
	c-20.5-19.1-46.2-32.9-73.5-39.5c1.8-1.3,3.4-2.4,4.7-3.2c27.6-15.5,63.8-7.1,80.3-1.9c8.4,10.8,17.4,20.8,27,29.7
	c51.2,47.8,137.4,79.9,230.7,85.7c2.6,1.6,5.4,2.8,8.5,3.5c8.5,1.8,19.4,4.6,30.5,8.7C3227.7,2020.9,3175.2,1988.4,3132.8,1948.9
	 M2902.1,1694.7c-4.6-9.1-8.3-18.8-12-28.3c-3.8-9.8-7.7-20-12.6-29.7c-12.6-25-31.9-46.8-55.2-62.6c2.1-0.6,4.1-1.1,5.5-1.3
	c31.2-5,62.3,15.5,75.9,26c4.2,13,9.2,25.6,15,37.2c26.5,52.8,74.8,99.5,132.4,128.2c1.5,4.5,3.1,9,4.8,13.5
	C2994.6,1781.4,2927.8,1745.7,2902.1,1694.7 M2769.7,1382c-1.3-10.1-1.5-20.6-1.8-30.7c-0.3-10.5-0.6-21.4-1.9-32.2
	c-3.5-27.8-14.4-54.8-31.1-77.4c2.2,0.1,4.2,0.3,5.7,0.6c31.1,5.8,53.5,35.5,62.8,50c-0.5,13.7,0.1,27.1,1.7,40.1
	c7.2,57.5,38.7,120,84.2,167.3c-0.1,4.2,0,8.3,0.1,12.5C2829.5,1493.6,2776.6,1436.8,2769.7,1382 M2748,1039.7c2-10,5-20,7.9-29.7
	c3-10.1,6.2-20.5,8.3-31.2c5.4-27.5,3.5-56.6-5.2-83.3c2,0.8,3.9,1.6,5.2,2.4c27.7,15.3,39.7,50.5,44,67.2
	c-4.7,12.9-8.5,25.8-11,38.6c-10.5,53.2,0.5,125.1,28,184.9c-1.8,4.7-3.6,9.4-5.2,14.2C2769,1167.5,2736.9,1095.7,2748,1039.7
	 M2809.2,722.7c3.9-9.4,8.9-18.6,13.8-27.5c5-9.2,10.2-18.8,14.4-28.8c10.8-25.9,14.8-54.7,11.7-82.6c1.8,1.2,3.5,2.4,4.6,3.4
	c24.1,20.5,28.7,57.4,29.5,74.6c-7.2,11.6-13.5,23.6-18.6,35.6c-22.5,53.5-26.6,122.9-11.1,185.9c-2.6,3.4-5.1,6.8-7.6,10.3
	C2803.4,849.2,2787.2,775.3,2809.2,722.7 M2973.3,584.3c-1.4,4-2.8,8.2-4.1,12.4c-0.5,1.5-0.9,2.9-1.3,4
	c-4.9,14.9-7.6,30.8-7.8,47.3c-0.2,14.7,1.2,29.4,2.6,43.6c2,20.6,3.9,40,1.2,59.8c-6.1,44.4-34.2,75.5-64.1,108.4
	c-1.5,1.6-3,3.3-4.5,5c0.9-4.3,2.1-8.2,3.5-10.9c1.7-3,0.9-6.8-1.9-8.9c-2.8-2.1-6.6-2-9.1,0.4c-8.4,7.8-16.3,16.1-23.8,24.9
	c-12.1-57.5-7.5-119.4,12.8-167.6C2895.6,658,2930.8,615.1,2973.3,584.3 M2965.8,427.3c6.7-6.8,14.4-13.1,21.7-19.2
	c7.7-6.3,15.6-12.9,22.8-20.2c18.5-18.6,32.1-42.2,39.3-67.5c1,1.5,1.8,2.8,2.4,3.9c13.7,26.3,4.9,60-0.5,75.3
	c-10.4,7.6-20.1,15.8-28.8,24.6c-35.7,36-62.5,95.9-71.9,160.8c-3.4,2.8-6.7,5.6-9.9,8.5C2922.1,542.1,2927,466.3,2965.8,427.3
	 M3149.9,373.1c-1,1.2-1.8,2.2-2.5,3.1c-9.6,11.3-17.5,24.3-23.6,38.7c-5.4,12.8-9.3,26.1-13.1,39.1c-5.5,18.7-10.7,36.4-20,52.6
	c-20.7,36.2-56,53.1-93.4,70.9c-2.9,1.4-5.8,2.8-8.7,4.2c1.9-4.4,3.9-8.3,6-10.8c2.3-2.6,2.3-6.5,0-9.1c-2.2-2.7-6-3.3-9-1.5
	c-6.6,4-13,8.3-19.3,12.8c10.6-56.8,34.6-108.1,65.9-139.6c31.8-32,77.3-56.9,125-68.9C3154.7,367.4,3152.3,370.3,3149.9,373.1
	 M3164.9,454.7c4.9-0.6,11.9-0.6,18.6-0.4c-21.2,16.1-37.1,38.7-52.6,60.6c-12.8,18.1-26,36.9-41.9,51.5
	c-30.7,28.1-70.4,41.7-108.2,37.4c0.3-0.9,0.6-2,1-3.1c0.1-0.3,0.2-0.7,0.3-1c6.9-3.5,14-6.9,20.8-10.2c37.6-18,76.4-36.6,99.2-76.3
	c8.3-14.5,13.6-30.1,18.2-45.5C3135.4,461.9,3149.5,456.5,3164.9,454.7 M3015.7,670.4c4.8-2.6,12.2-5.6,19.2-8.2
	c-14.8,24.4-21.6,53.2-28.1,81.3c-5.4,22.9-10.9,46.6-20.7,67.3c-19.4,40.8-54.2,70.5-94.2,80.7c0.1-0.6,0.1-1.1,0.1-1.7
	c0.1-0.5,0.1-1,0.2-1.6c5.7-6.6,11.7-13.3,17.6-19.7c29.9-32.9,60.7-67,67.4-115.5c2.4-17.6,1.4-35-0.2-52.1l0.1-0.1
	C2989.5,689.3,3001.2,678.4,3015.7,670.4 M2905.3,1036.6c2.9,43.3-20.9,82.6-44,120.6c-2.2,3.6-4.4,7.4-6.6,11.1
	c-0.4-3.9-0.5-7.6,0-10.3c0.6-3.4-1.3-6.7-4.5-7.9c-3.3-1.2-6.9,0.2-8.6,3.2c-3.3,6.1-6.4,12.3-9.4,18.6
	c-22.7-55-31.4-118.3-22.1-165.6c9.4-47.4,35.3-96.5,70.7-135.2c-0.6,4.2-1.1,8.6-1.5,12.9c-0.2,1.6-0.3,3-0.5,4.2
	c-1.8,15.6-1.2,31.7,1.9,47.9c2.7,14.4,7.1,28.5,11.3,42.2C2898.2,998.1,2904,1016.7,2905.3,1036.6 M2939.7,946.9
	c4.2-3.6,10.8-7.9,17.1-11.9c-9.6,26.9-10.4,56.5-11.2,85.3c-0.6,23.5-1.3,47.8-6.8,70.1c-11.2,45.7-42.1,85.5-79.6,103.5
	c-0.2-1.1-0.5-2.4-0.8-3.9c-0.1-0.5-0.2-1.1-0.3-1.6c4.6-8,9.4-16,14.5-24.5c24.1-39.8,49-80.9,45.9-128.4
	c-1.2-17.7-5.7-34.6-10.7-51l0.1-0.1C2917.8,970.7,2927.1,957.7,2939.7,946.9 M2887.2,1278.4c12,16.8,23.4,32.7,30.9,51.2
	c16.6,40.8,6.7,85.1-2.9,128c-0.9,3.8-1.7,7.7-2.6,11.6c-2.7-5.1-4.9-10.2-5.6-14c-0.5-3.4-3.4-6-6.9-6c-3.6-0.1-6.4,2.5-7,5.9
	c-1.4,8.5-2.4,17.2-3,25.9c-38.9-44-65.5-99.3-71.9-150.3c-5.6-45.1,2.2-96.3,21-142.1l0.3-0.1c0-0.1-0.1-0.2-0.1-0.2
	c1.1-2.7,2.3-5.4,3.5-8.1c0.8,4.2,1.7,8.5,2.6,12.8c0.3,1.5,0.6,2.9,0.9,4.1c3.1,15.3,8.8,30.4,16.8,44.9
	C2870.4,1254.8,2878.9,1266.8,2887.2,1278.4 M2922.6,1233.7c2.9-4.7,7.8-10.9,12.6-16.7c-0.7,28.5,7.9,56.9,16.2,84.5
	c6.8,22.5,13.8,45.8,15.6,68.7c3.6,45.8-12.4,89.4-42.8,118.2c-0.1-0.2-0.2-0.4-0.4-0.5c-0.3-0.5-0.7-1.1-1.1-1.8
	c1.7-8.5,3.6-17.1,5.5-25.6c10-44.9,20.4-91.3,2.3-135.9c-6.7-16.4-16.3-31.1-26.1-45.1l0-0.1
	C2909.3,1263.1,2914,1247.8,2922.6,1233.7 M2943.3,1531.4c11,9.7,23.1,18.2,34.8,26.3c17,11.8,33,23,46.2,37.9
	c29.4,33.1,35.1,78.9,40.6,123.3c0.7,5.6,1.4,11.4,2.2,17.1c-5.3-4.5-10.4-9.5-12.7-13.6c-1.7-3-5.3-4.3-8.6-3.1
	c-3.3,1.2-5.1,4.6-4.5,7.9c1.2,6.4,2.8,12.8,4.5,19.2c-50.1-27.7-91.7-69.5-115.3-116.4c-21.7-43.1-31.4-97.8-27.1-150.1
	c2.1,3.7,4.4,7.5,6.7,11.2c0.8,1.3,1.6,2.6,2.2,3.6C2920.5,1508.1,2930.9,1520.5,2943.3,1531.4 M2996.5,1503.7
	c1.1-5.4,3.7-12.9,6.2-19.9c8.9,27.1,26.5,51,43.5,74.2c13.9,19,28.3,38.6,37.7,59.5c19.1,42.8,18.3,90.4-2,128.1
	c-1.4-9.2-2.6-18.5-3.8-28.4c-5.8-46.3-11.7-94.3-43.9-130.4c-11.8-13.2-25.7-23.8-39.7-33.7l0-0.1
	C2993.8,1536,2993.1,1519.9,2996.5,1503.7 M3156.6,1794.1c20,5.2,38.9,10.1,56.5,19.5c20.5,10.9,32.2,30.8,45.9,53.8
	c16.7,28.2,37.3,63,81.1,91.6c-82.6-8.6-157.4-38.1-202.9-80.6c-35.3-32.9-63.3-80.9-77.5-131.4c3.3,2.8,6.7,5.5,10.2,8.1
	c1.2,1,2.4,1.8,3.3,2.6c12.2,9.8,26.3,17.7,41.7,23.7C3128.5,1786.8,3142.8,1790.5,3156.6,1794.1 M3220.7,1770.7
	c19.6,13,39.9,26.3,56,42.8c31.7,32.4,50,78,48,117.4c-26.2-22.7-40.9-47.6-54.2-70.2c-14.7-24.8-27.3-46.1-51-58.8
	c-15.6-8.3-32.4-13.4-48.9-17.9l-0.1-0.2c-6.6-15.7-12.8-30.5-15.2-46.8c-0.8-5.4-1-13.4-1-20.8
	C3171.9,1738.5,3196.6,1754.8,3220.7,1770.7 M3765.2,1900.5c1.3-2.5,2.4-5.1,3.6-7.7c3.8-8.4,7.4-16.2,13.9-21.2
	c4.3-3.3,9.8-5.3,15.7-7.4c8.8-3.2,17.8-6.4,24.1-14.5c3.7-4.8,5.4-10.3,6.9-15.1c1.3-4,2.4-7.8,4.6-10.7c4.5-6.4,13-9.2,21.9-12.2
	c3.9-1.3,7.9-2.7,11.8-4.4c15.8-7,29.3-21,38-38.7c15.5-0.2,31.2-5,44.7-13.8c1.4-0.9,2.9-1.9,4.5-3c1.5-1,3-2,4.6-3l0,0.1
	c0.1-0.1,0.3-0.2,0.4-0.3c9.1-5.8,18.9-11.2,24.3-7.2c4.1,3,3.2,11,0.6,17.2c-0.8,2-1.9,4-3,6.1c-1,1.5-1.9,3-2.5,4.6l0,0
	c-2.7,5-5.4,10.2-6.8,15.9c-1.3,5-1.5,10-1.8,14.8c-0.3,5.8-0.6,11-2.5,15.3c0,0-2.2,3.6-2.7,4.1c-2.8,3-7,4.9-11.5,7
	c-4.2,1.9-8.5,3.9-12.4,6.9c-10,7.9-13.3,19.1-16.5,30c-2.6,8.8-5,17.2-10.9,22.8c-6.6,6.3-16.2,8.2-26.5,10.2
	c-10.2,2-20.8,4.1-29.8,10.7c-3,2.2-5.6,4.7-8,7.1c-1.8,1.8-3.6,3.6-5.5,5.1c-6.8,5.5-15.7,8.4-24.3,11.1
	c-31.8,10.2-102.7,26.8-137.6,23.6c0-0.3,0.1-0.6,0.1-0.9C3699.8,1947.2,3751.4,1927.7,3765.2,1900.5 M3714.1,1895.6
	c0.8-3.9,1.3-7.8,1.7-11.5c1-8.3,2-16.1,6-22.7c2.3-3.7,5.6-7.1,9-10.6c1.6-1.6,3.2-3.3,4.8-5c9.8-10.9,16.4-23.7,22.8-36
	c7.7-14.9,14.9-28.9,27.1-39.1c9-7.6,20-12.3,31.6-17.4c5.2-2.3,10.5-4.6,15.7-7.2c18.3-9.2,34.9-22.2,48.2-37.7
	c8.4-9.8,16.2-15.1,24-16.3c0,0.3,0,0.5,0,0.9c0.1,19.3,0.3,39.3-5.8,58.4c-6.5,20.5-20.2,37.1-36.6,44.4c-3.3,1.5-6.9,2.7-10.7,4
	c-10.5,3.5-21.3,7.2-28.2,16.9c-3.3,4.6-4.9,9.8-6.3,14.3c-1.3,4.2-2.6,8.1-4.9,11.1c-4,5.2-11,7.7-18.4,10.4
	c-6.5,2.3-13.2,4.8-19.1,9.2c-9.1,6.9-13.5,16.6-17.8,26c-1.1,2.4-2.2,4.9-3.4,7.2c-7.8,15.4-33.6,30-58.9,40.3
	C3706.2,1924.6,3710.7,1912.3,3714.1,1895.6 M3949.7,1691.5c-0.5-3.9-1.4-7.7-2.2-11.4c-1.8-8.1-3.5-15.8-1.8-23.4
	c0.9-4.3,2.9-8.5,5-13c1-2.1,2-4.2,2.8-6.3c5.7-13.5,7.7-27.7,9.6-41.5c2.3-16.6,4.6-32.2,12.7-45.9c6-10.2,14.8-18.3,24.1-26.8
	c4.1-3.8,8.4-7.8,12.5-12c14.2-14.7,25.6-32.5,33-51.5c4.7-12,10.3-19.6,17.2-23.3c0.1,0.2,0.2,0.5,0.3,0.8
	c6.5,18.2,13.2,37,13.8,57c0.6,21.5-6.8,41.7-19.9,54c-2.7,2.5-5.6,4.8-8.8,7.3c-8.7,6.8-17.7,13.8-21,25.2
	c-1.6,5.4-1.4,10.8-1.3,15.6c0.1,4.4,0.3,8.5-0.9,12.1c-2.1,6.2-7.8,10.9-13.9,15.8c-5.4,4.4-10.9,8.9-14.9,15
	c-6.3,9.5-7.2,20.2-8.2,30.4c-0.2,2.7-0.5,5.3-0.8,7.9c-3.2,24.5-15.4,45.9-34.4,60.7c-1.6,1-3.1,2.1-4.6,3.1c-1.5,1-2.9,2-4.3,2.9
	c-4.1,2.6-8.5,4.8-13,6.6C3942.7,1732.7,3952.2,1709.7,3949.7,1691.5 M4153.8,1456.6c4.9,1.5,6.7,9.4,6.3,16
	c-0.2,3.3-0.8,6.8-1.3,10.4c-1,6.1-2,12.3-1.4,18.8c0.5,5.1,1.9,9.9,3.2,14.6c1.6,5.6,3.1,10.6,2.7,15.3c0,0-0.4,3.4-1.2,4.8
	c-2.1,3.5-5,7-8.6,10.4c-3.3,3.2-6.7,6.4-9.4,10.6c-6.9,10.7-6.2,22.4-5.6,33.8c0.5,9.2,1,17.8-2.7,25.1
	c-4.1,8.1-12.6,13.1-21.6,18.4c-9,5.2-18.3,10.7-24.6,19.9c-2.1,3.1-3.7,6.3-5.2,9.4c-1.1,2.3-2.2,4.6-3.5,6.6
	c-4.6,7.5-12.1,13.1-19.3,18.5c-20.6,15.6-43.9,33-68.6,43.1c-0.4-0.3-0.7-0.7-1.2-1.1c-3.5-2.6-7.3-3.7-11.2-3.9
	c10-13.9,16.5-30.3,18.9-48c0.4-2.8,0.6-5.6,0.9-8.4c0.8-9.1,1.6-17.8,6.1-24.7c3-4.5,7.5-8.2,12.4-12.1c7.2-5.9,14.7-12,17.9-21.7
	c1.9-5.8,1.7-11.5,1.6-16.5c-0.1-4.2-0.3-8.1,0.8-11.7c2.2-7.5,9.2-13,16.7-18.8c3.3-2.5,6.6-5.2,9.7-8
	c12.6-11.8,20.8-29.5,23.1-49.1c14.5-5.3,27.8-15,37.7-27.8c0.5-0.6,2.9-3.6,3.4-4.5C4137.1,1466.3,4146.2,1454.3,4153.8,1456.6
	 M4094.6,1427.5c-2-3.4-4.3-6.6-6.5-9.7c-4.8-6.8-9.4-13.2-10.9-20.8c-0.8-4.3-0.7-9-0.5-13.9c0.1-2.3,0.2-4.6,0.1-6.9
	c-0.1-14.6-3.8-28.5-7.4-42c-4.3-16.1-8.5-31.4-6.3-47.2c1.6-11.7,6.4-22.6,11.6-34.1c2.3-5.2,4.7-10.5,6.8-15.9
	c7.3-19.1,10.8-40,10.2-60.4c-0.4-12.8,1.8-22.1,6.7-28.2c0.2,0.2,0.4,0.4,0.6,0.6c13.1,14.2,26.7,28.8,35.1,47
	c9,19.6,10.1,41,2.9,57.4c-1.5,3.3-3.3,6.7-5.2,10.2c-5.3,9.7-10.9,19.6-9.4,31.4c0.7,5.6,3,10.5,5,14.8c1.8,4,3.6,7.7,3.9,11.5
	c0.5,6.5-2.9,13.1-6.6,20c-3.2,6.1-6.5,12.4-7.8,19.7c-2,11.2,1.3,21.4,4.4,31.2c0.8,2.6,1.6,5.1,2.4,7.6
	c6.9,24.6,5.1,50.1-4.5,69.3c-0.9,1.2-1.8,2.3-2.6,3.4c-3.5,4.5-7.5,8.6-12,12.2C4107,1464.5,4103.6,1442.5,4094.6,1427.5
	 M4127.1,1130.6c-2.5-3-5.3-5.8-7.9-8.5c-5.8-5.9-11.4-11.5-14-18.8c-1.5-4.1-2.1-8.8-2.7-13.7c-0.3-2.3-0.6-4.6-0.9-6.8
	c-2.4-14.4-8.3-27.6-14-40.3c-6.8-15.3-13.3-29.7-13.7-45.6c-0.3-11.8,2.8-23.3,6.1-35.5c1.5-5.5,3-11.1,4.2-16.8
	c4.2-20,4.3-41.2,0.5-61.2c-2.4-12.6-1.7-22.1,2.1-28.9c0.2,0.1,0.4,0.3,0.7,0.5c15.2,11.9,30.9,24.3,42.1,40.9
	c12,17.9,16.5,38.9,11.9,56.3c-0.9,3.5-2.2,7.1-3.6,10.9c-3.7,10.4-7.6,21.1-4.3,32.5c1.6,5.5,4.6,9.9,7.2,13.9
	c2.5,3.6,4.8,7.1,5.7,10.8c1.6,6.3-0.8,13.4-3.3,20.8c-2.2,6.5-4.5,13.3-4.6,20.7c-0.2,11.4,4.6,20.9,9.3,30.1
	c1.2,2.4,2.4,4.8,3.5,7.2c9,19.6,16.4,40.6,10.7,62c-0.3,1.2-0.7,2.4-1.1,3.5c-0.2,0.7-0.4,1.3-0.7,2l0,0
	c-3.2,9.2-8.3,17.8-14.6,24.8c-0.1-0.2-0.1-0.3-0.2-0.5c-0.8-1.8-1.8-3.6-2.7-5.3C4145.9,1162.6,4141.7,1148,4127.1,1130.6
	 M4164,857.9c0.2-1.7,0.3-3.5,0.5-5.3c1-12.2,2.3-27.4,10-29.5c5-1.4,10.6,4.4,13.8,10.2c0.6,1,1.1,2.1,1.6,3.2
	c0.5,1.7,1.2,3.3,2.2,4.8c0.2,0.5,0.5,1,0.7,1.6c2.4,5.7,4.9,11.5,8.8,16.6c3.1,4.1,6.9,7.4,10.5,10.6c5.9,5.2,11,9.7,12,16.2
	c0.6,4.1-0.5,8.6-1.7,13.4c-1.1,4.4-2.2,9-2.3,14c-0.1,12.7,6.7,22.3,13.2,31.6c5.3,7.5,10.3,14.6,11.1,22.7
	c0.9,9.1-3.7,17.8-8.5,27.1c-4.8,9.2-9.8,18.8-10.2,30c-0.2,3.7,0.2,7.3,0.6,10.7c0.3,2.6,0.6,5,0.6,7.4c0.1,8.8-3.2,17.5-6.4,25.9
	c-5.9,15.6-13.1,34.5-22,51.6c-3.1-1.4-6.4-2.1-9.8-1.8c-6.1,0.7-10.7,3.7-14.2,8.1c-2.5-11.5-7-22.5-11.9-33.2
	c-1.2-2.5-2.5-5.1-3.7-7.6c-4.2-8.2-8.1-15.9-7.9-24.1c0.1-5.4,2-11,4-16.9c3-8.8,6.1-18,3.6-27.9c-1.4-5.9-4.7-10.6-7.5-14.8
	c-2.3-3.5-4.6-6.7-5.6-10.3c-2.2-7.5,0.9-15.9,4.1-24.8c1.4-3.9,2.9-7.9,3.9-12c4.4-16.7,1.8-36-6.6-53.8
	C4156.4,889.3,4162.4,874,4164,857.9 M4113.1,829.1c-3.5-1.3-7-2.4-10.4-3.5c-7.5-2.3-14.6-4.4-19.7-9.1c-2.8-2.6-5.1-6-7.5-9.6
	c-1.1-1.7-2.3-3.4-3.5-5.1c-7.7-10.6-18-18.6-28.1-26.4c-11.9-9.2-23.1-18-29.4-30.2c-4.7-9.1-6.2-19.5-7.8-30.5
	c-0.7-5-1.5-10.1-2.6-15.2c-3.8-17.8-11.7-34.9-22.8-49.3c-6.9-9-9.8-16.7-8.7-23.6c0.7,0,1,0,1.7,0.2c18.3,3.1,37.3,6.4,53.7,15
	c17.4,9.1,29.3,23.8,31.7,39.2c0.5,3.1,0.7,6.5,0.9,10.1c0.5,9.5,1.1,20.4,8.6,28.3c3.5,3.8,8,6.1,11.9,8.1c3.5,1.8,6.9,3.6,9.1,6.1
	c3.6,4.2,4.1,10.3,4.6,17.4c0.5,6.2,1,12.6,3.7,18.7c4.2,9.4,12.7,15.3,20.1,20.4c2,1.4,4,2.8,5.9,4.2
	c17.3,13.1,26.9,31.4,27.9,52.9c-0.1,1.5-0.3,3-0.4,4.4c-0.1,1.3-0.2,2.5-0.3,3.7C4143.7,844.7,4131.1,836.1,4113.1,829.1
	 M4044.1,597c-0.5-1.4-1-2.9-1.6-4.5c-4.6-12.7-7.7-22.8-1.8-27.4c4.3-3.4,12-1.3,17.2,2.1c2.6,1.7,5,3.6,7.5,5.7
	c4.3,3.5,8.8,7.2,14.4,9.6c4.4,2,9,3,13.5,4c7.3,1.7,13.6,3.1,16.8,7.7c2,2.8,2.6,6.8,3.3,10.9c0.7,4.1,1.4,8.2,3.3,12.3
	c4.9,10.5,15.1,15.5,24.2,20c7.6,3.7,14.7,7.2,18.4,13.2c4,6.6,3.2,15.3,2.4,24.5c-0.9,9.5-1.8,19.3,2.1,28.6c1.3,3.1,3,5.8,4.7,8.4
	c1.2,1.9,2.4,3.7,3.3,5.6c3.3,6.8,3.6,15,3.9,23c0.8,22.1,1.6,47.1-3.7,70.1c-0.3,0.1-0.5,0.1-0.8,0.1c-5.7,1.6-9.6,5.1-12.3,9.7
	c-5.3-14-14.5-26.1-27.3-35.8c-2-1.5-4.2-3-6.3-4.5c-6.8-4.7-13.2-9.2-16-15.5c-1.9-4.2-2.3-9.3-2.7-14.8c-0.6-8-1.3-17.2-7.5-24.3
	c-3.6-4.2-8.4-6.6-12.5-8.8c-3.4-1.8-6.6-3.4-8.8-5.7c-4.5-4.8-4.9-12.6-5.4-20.8c-0.2-3.7-0.4-7.5-1-11.3
	c-2.4-15.2-11.9-29.6-26.1-40.3C4049.1,625.1,4048.8,610.4,4044.1,597 M3978,581.7c-3.6-0.8-7.3-1.3-10.8-1.9
	c-7.8-1.1-15.1-2.2-20.8-6c-3.2-2.1-5.9-5.2-8.8-8.4c-1.4-1.5-2.8-3.1-4.2-4.5c-9.2-9.3-20.6-15.7-31.7-21.9
	c-13.1-7.3-25.6-14.3-33.6-25.5c-6-8.3-9-18.4-12.3-29c-1.5-4.8-3-9.8-4.8-14.6c-6.4-17.1-16.8-32.8-30-45.4
	c-8.2-7.8-12.2-15.1-12.1-22.1c0.4-0.1,1.1-0.1,1.7-0.1c18.6,0.4,37.8,0.7,55.3,6.8c18.6,6.4,32.5,19.1,37.2,34c1,3,1.6,6.3,2.3,9.8
	c1.9,9.4,4.1,20,12.7,26.7c4.1,3.2,8.8,4.8,13,6.3c3.8,1.3,7.4,2.5,9.9,4.6c4.2,3.6,5.6,9.6,7.1,16.5c1.4,6.1,2.8,12.4,6.4,18
	c5.6,8.7,14.8,13.2,22.9,17.2c2.2,1.1,4.4,2.1,6.4,3.3c25,13.6,39.5,27.4,44.3,42.1l0,0c1,3.1,2,6.1,3,8.9c0.5,1.5,1,2.9,1.5,4.3
	c0.2,0.7,0.4,1.4,0.6,2.1C4018.9,592.7,3996.8,585.9,3978,581.7 M3875.2,362.5c-0.7-1.4-1.5-2.8-2.2-4.2c-6.4-11.9-11-21.4-5.9-26.8
	c3.8-4,11.7-3.1,17.3-0.5c2.8,1.3,5.5,2.8,8.3,4.5c4.8,2.8,9.8,5.8,15.6,7.4c4.6,1.3,9.4,1.6,14,2c7.4,0.6,13.9,1,17.7,5.1
	c2.4,2.5,3.6,6.3,4.9,10.3c1.3,3.9,2.6,7.9,5.1,11.7c6.4,9.6,17.3,13.1,27,16.1c8.1,2.5,15.6,4.9,20.1,10.3c5,5.9,5.5,14.7,6,23.9
	c0.5,9.5,1.1,19.3,6.3,27.9c1.8,2.9,3.9,5.3,5.9,7.6c1.5,1.7,2.9,3.3,4.1,5c4.3,6.2,5.8,14.3,7.2,22.1c4.1,22.1,8.7,47,6.8,70.8
	c0,0-0.1,0-0.1,0.1c-2.8,2.2-4.7,4.8-5.9,7.6c-10.9-12.5-25.8-21.7-37.8-28.2c-2.2-1.2-4.6-2.4-6.9-3.5c-7.4-3.6-14.4-7.1-18.2-13
	c-2.5-3.9-3.6-8.9-4.9-14.2c-1.8-7.9-3.8-16.8-11-22.9c-4.2-3.6-9.3-5.3-13.7-6.8c-3.6-1.2-7.1-2.4-9.5-4.4
	c-5.2-4.1-6.8-11.7-8.4-19.8c-0.7-3.6-1.5-7.4-2.6-11c-4.6-14.7-16.2-27.5-31.9-36C3884.3,389.5,3881.8,375.1,3875.2,362.5
	 M3959.9,328.2c1.8-3.8,3.3-7.6,4.7-11.4c1.8-4.7,3.5-9.2,5.8-13.3c0.7-1.2,1.6-2.8,2.7-3.4c2.1-1.3,6.2,0.4,8.5,3.5
	c2,2.8,3.2,6.4,4.5,10.2c0.7,2.1,1.4,4.1,2.2,6.1c6.1,14.6,18.8,25.9,34,30.3c2.8,0.8,5.8,1.4,8.6,2c7.4,1.5,14.4,2.9,17.7,7.7
	c2.5,3.5,2.8,8.7,3,13.7c0.5,12.6,0.1,25.4-0.9,38.2c-0.5,6-1.1,12.7,2.2,19c2.2,4.3,5.7,7.3,8.8,9.9c1.5,1.3,2.9,2.5,4.1,3.8
	c8.1,8.8,6.9,23.8,5,37.1c-1.5,11.1-3.1,22.7-6.9,33.2c-1.1,3.1-2.5,6.2-3.8,9.3c-2.4,5.6-5,11.4-6.4,17.8
	c-0.6,2.6-1.2,6.3-1.5,10.5c-2.2-0.5-4.5-0.8-6.7-0.7c1.1-23.9-3.5-48.6-7.3-68.8c-1.6-8.6-3.4-18.4-9.1-26.6
	c-1.5-2.2-3.2-4.2-4.9-6.1c-1.8-2-3.5-4-4.7-6c-3.7-6.1-4.2-14-4.6-22.4c-0.6-10.8-1.2-21.9-8.8-30.9c-6.7-8-16.3-11-25.6-14
	c-8.5-2.7-16.6-5.2-20.6-11.4c-1.6-2.4-2.6-5.6-3.7-8.9c-1.5-4.5-3.3-9.6-6.9-13.9C3954.4,338.2,3957.8,332.6,3959.9,328.2
	 M4133,575.7c2.4-3.5,4.4-7.1,6.4-10.6c2.5-4.4,4.8-8.6,7.7-12.3c0.9-1.1,2-2.5,3.1-3c2.2-1,6.1,1.4,7.9,4.8c1.6,3.1,2.3,6.8,3,10.8
	c0.4,2.1,0.8,4.3,1.3,6.4c3.8,15.3,14.7,28.4,29.1,35c2.7,1.2,5.5,2.3,8.2,3.2c7.1,2.6,13.8,5,16.4,10.2c1.9,3.8,1.5,9,0.9,14
	c-1.4,12.5-3.7,25.1-6.6,37.6c-1.4,5.8-3,12.5-0.7,19.2c1.5,4.6,4.5,8,7.2,11.1c1.3,1.5,2.5,2.9,3.5,4.3c6.7,10,3.2,24.5-0.5,37.4
	c-3.2,10.8-6.4,22-11.8,31.7c-1.6,2.9-3.4,5.8-5.1,8.6c-3.3,5.2-6.6,10.6-9,16.6c-1.2,3.1-2.9,8.6-4.1,14.7c-2-1.5-4-2.7-6.1-3.6
	c5.2-24.2,4.4-50.4,3.7-71.7c-0.3-8.7-0.7-18.7-5-27.7c-1.2-2.4-2.6-4.6-3.9-6.8c-1.4-2.3-2.8-4.5-3.7-6.7c-2.8-6.6-2-14.5-1.2-22.9
	c1-10.7,2-21.8-4.1-31.8c-5.4-8.9-14.5-13.3-23.3-17.6c-8-3.9-15.6-7.7-18.7-14.3c-1.2-2.6-1.8-5.9-2.3-9.3
	c-0.8-4.7-1.8-10-4.7-14.7C4126.1,584.8,4130.3,579.8,4133,575.7 M4291.8,1021.7c8.2-11.6,15.8-24,22.7-36.7
	c3.4-6.2,7-13.6,6.8-21.8c-0.3-11.5-7.4-19.7-13.7-26.9c-2-2.2-3.8-4.3-5.4-6.5c-7.9-10.5-11.3-25.6-8.9-39.4
	c0.4-2.2,0.9-4.3,1.4-6.4c1.2-5.1,2.4-10.4,2.3-16.1c-0.3-10.4-6.8-21.1-17.2-21.2c-4.1,0-7.5,1.7-10.1,3.2
	c-5,2.9-9.5,6.6-13.8,10.1c-3.2,2.6-6.2,5.1-9.3,7.2c-6.2,4.2-10.6,5.9-14.5,5.6c-3.2-4.9-7.6-8.8-11.6-12.3
	c-3.3-2.9-6.4-5.7-8.8-8.8c-3-3.9-5-8.7-7.2-13.9c-1.2-2.7-2.4-5.5-3.8-8.2c-0.5-6.6,1.5-16.9,4.4-24.4c2-5,4.9-9.7,8-14.7
	c1.8-3,3.8-6,5.5-9.2c5.9-10.9,9.4-22.7,12.7-34.1c4.5-15.5,8.6-33.2-1-47.4c-1.4-2-2.9-3.8-4.4-5.5c-2.1-2.4-4.1-4.7-4.9-7.1
	c-1.2-3.5-0.1-7.9,1.1-12.9c3-12.7,5.3-25.7,6.8-38.7c0.7-6.5,1.3-14-2.1-20.7c-4.7-9.4-14.4-12.9-22.9-16c-2.5-0.9-5-1.8-7.4-2.9
	c-11-5-19.6-15.4-22.5-27.1c-0.5-1.8-0.8-3.7-1.1-5.6c-0.8-4.6-1.7-9.4-4.1-14.1c-4.2-8.1-14.3-14.2-23.3-10.1
	c-3.5,1.6-5.9,4.3-7.6,6.5c-3.5,4.4-6.1,9.2-8.7,13.8c-1.9,3.4-3.7,6.6-5.8,9.6c-3.6,5.3-7.8,9-12.1,10.9c-4.8-2.6-10.2-3.8-15.2-5
	c-4.1-0.9-8-1.8-11.3-3.3c-4.1-1.8-7.8-4.8-11.7-8c-2.7-2.2-5.5-4.4-8.5-6.4c-0.2-0.1-0.4-0.2-0.5-0.3c0.2-5.1,0.9-9.8,1.5-12.6
	c1.2-5.3,3.4-10.3,5.7-15.7c1.4-3.2,2.8-6.5,4.1-9.9c4.2-11.7,5.9-23.8,7.5-35.6c2.2-16,3.5-34.1-8.1-46.7c-1.7-1.8-3.4-3.3-5.1-4.8
	c-2.4-2.1-4.8-4-5.9-6.3c-1.7-3.3-1.3-7.8-0.9-12.9c1.1-13,1.4-26.2,1-39.3c-0.2-6.5-0.9-14-5.2-20.2c-6.1-8.5-16.1-10.6-25-12.4
	c-2.6-0.5-5.2-1.1-7.7-1.8c-11.6-3.3-21.7-12.3-26.3-23.4c-0.7-1.8-1.4-3.6-2-5.4c-1.5-4.5-3.1-9.1-6.2-13.3
	c-5.3-7.3-16.2-11.9-24.5-6.5c-3.2,2.1-5.2,5.1-6.5,7.5c-2.8,4.9-4.7,10-6.6,14.9c-1.4,3.7-2.7,7.1-4.3,10.4
	c-2.8,5.7-6.4,10.1-10.3,12.6c-5.1-1.8-10.6-2.2-15.8-2.6c-4.2-0.3-8.2-0.6-11.7-1.6c-4.3-1.2-8.4-3.6-12.8-6.2
	c-3-1.8-6.1-3.6-9.4-5.1c-9.1-4.1-22.6-5.7-30.9,3.2c-11.3,12.1-2.4,28.6,4.1,40.6c0.7,1.4,1.5,2.7,2.2,4c4.9,9.4,7.1,19.9,6.4,30.4
	c-0.4-0.2-0.9-0.4-1.3-0.5c-19.3-6.6-39.4-7-58.9-7.4c-7.9-0.2-13.2,3.5-13.7,9.3c-1.1,11.3,4.1,22.2,15.7,33.3
	c11.9,11.4,21.2,25.6,27,41c1.7,4.5,3.1,9.3,4.6,13.9c3.4,11.1,6.9,22.5,14,32.5c9.6,13.4,23.8,21.3,37.5,29c10.8,6,21,11.7,29,19.9
	c1.3,1.3,2.6,2.7,3.8,4.1c3.2,3.6,6.6,7.3,11,10.3c7.9,5.3,17,6.6,25.7,7.9c3.5,0.5,6.8,1,9.9,1.7c32.1,7.2,54.6,17.9,60.6,28.8
	c-0.1,3.3-0.5,6.6-1.2,9.9c-0.4-0.2-0.8-0.5-1.2-0.7c-18.1-9.4-38-12.9-57.2-16.1c-7.7-1.3-13.5,1.5-14.9,7.1
	c-2.7,11,0.7,22.6,10.5,35.3c10.1,13,17.2,28.4,20.6,44.6c1,4.7,1.7,9.6,2.4,14.4c1.7,11.5,3.4,23.3,9,34.2
	c7.5,14.7,20.3,24.6,32.7,34.2c9.8,7.6,19,14.8,25.7,24c1.1,1.5,2.1,3.1,3.2,4.6c2.7,4.1,5.4,8.3,9.4,11.8c7,6.4,15.8,9.1,24.3,11.6
	c3.4,1,6.5,2,9.6,3.2c22.2,8.7,35,19.6,39,33.3c-1.9,5.6-4.5,11-7.6,15.8c-0.1-0.1-0.2-0.3-0.3-0.4c-12.3-18.3-28.8-31.3-44.8-43.8
	c-2.2-1.7-6.5-4.4-11.1-3.8c-2.6,0.4-4.9,1.8-6.5,4c-7,9.9-8.8,23.1-5.5,40.5c3.5,18.4,3.4,37.8-0.4,56.2c-1.1,5.3-2.6,10.8-4,16.1
	c-3.4,12.5-6.8,25.5-6.5,39.1c0.5,18.4,7.8,34.7,14.8,50.4c5.6,12.5,10.9,24.4,13.1,37.2c0.3,2.1,0.6,4.2,0.9,6.3
	c0.7,5.4,1.4,11,3.4,16.4c3.6,9.9,10.3,16.7,16.9,23.4c2.6,2.6,5.1,5.1,7.3,7.8c8.3,9.9,12.4,18,13.5,28.1
	c-7.1-9.4-14.9-18-22.7-26.4c-2.3-2.5-5.9-5.4-10.4-5.5c-2.7,0-5.1,1-7,2.9c-8.5,8.6-12.4,21.4-11.8,39.2
	c0.6,18.7-2.6,37.9-9.3,55.4c-1.9,5.1-4.3,10.3-6.5,15.2c-5.3,11.9-10.8,24.1-12.6,37.6c-2.4,18.3,2.2,35.5,6.7,52.1
	c3.6,13.2,6.9,25.8,7,38.8c0,2.1-0.1,4.3-0.1,6.4c-0.2,5.4-0.4,11.1,0.7,16.7c2,10.3,7.6,18.2,13,25.8c2.2,3,4.2,5.9,6,8.9
	c9.1,15.2,11.4,40,5.9,60.2c-0.1,0-0.2,0.1-0.2,0.1c0-0.2,0-0.3,0-0.5c-0.6-22-7.7-41.8-14.5-60.9c-0.9-2.6-3.1-7.2-7.4-9.1
	c-2.4-1.1-5.1-1.1-7.6-0.1c-11.2,4.6-19.8,14.8-26.2,31.4c-6.8,17.4-17.3,33.8-30.4,47.3c-3.8,3.9-7.9,7.8-12,11.5
	c-9.5,8.8-19.4,17.9-26.4,29.7c-9.4,15.8-11.9,33.5-14.3,50.5c-1.9,13.6-3.7,26.4-8.8,38.4c-0.8,2-1.7,3.9-2.6,5.8
	c-2.3,4.9-4.7,10-5.9,15.7c-2.2,10.3-0.2,19.7,1.8,28.8c0.8,3.6,1.5,7,2,10.5c2.5,18.2-11.1,45.1-25.9,62.4c0,0-0.1,0-0.1,0
	c0.1-0.2,0.1-0.3,0.2-0.5c6.7-21,6.5-42,6.4-62.3c0-2.7-0.6-7.8-4-11c-1.9-1.8-4.4-2.7-7.1-2.6c-12.1,0.6-23.6,7.5-35.1,20.9
	c-12.2,14.2-27.5,26.2-44.3,34.6c-4.9,2.4-10.1,4.7-15.1,6.9c-11.9,5.2-24.2,10.5-34.7,19.3c-14.1,11.8-22.3,27.7-30.2,43
	c-6.3,12.2-12.3,23.7-21,33.4c-1.4,1.6-2.9,3.1-4.4,4.6c-3.8,3.9-7.7,7.9-10.8,12.8c-5.5,8.9-6.7,18.5-7.8,27.8
	c-0.5,3.7-0.9,7.2-1.6,10.6c-3.3,16.2-7.3,26.6-18.5,35.4v-29.6c0-14.9-12.1-27-27-27h-57.5c-12.5,0-16.2,0-36.3-4.1
	c-7.8-1.6-13.8-3.6-19.5-5.5c-9.3-3.1-17.4-5.7-28-5.3c-11.1-0.4-19.2,2.2-28.4,5.3c-5.8,1.9-11.8,3.9-19.6,5.5
	c-20,4.1-23.8,4.1-36.3,4.1H3373c-14.9,0-27,12.1-27,27v48.1c-3.2-2.1-6.2-4.3-9.2-6.4c5.7-45.4-13.8-98.3-50.9-136.2
	c-17-17.4-37.9-31.2-58.1-44.5c-29.9-19.7-58.2-38.4-74-67.4c-1.4-2.6-4.3-3.9-7.2-3.2c-2.8,0.6-4.9,3.1-5.1,6
	c-0.1,1.2-1.5,29.3,0.7,43.8c2.2,14.6,7.1,28,12.3,40.9c-11.8-3.1-23.7-6.4-35-10.8c-10.2-3.9-19.3-8.7-27.9-14.3
	c23.8-41.8,25.3-95,4.1-142.6c-9.9-22.2-24.7-42.4-39.1-61.9c-21.2-28.9-41.3-56.2-46-88.9c-0.4-2.9-2.7-5.1-5.6-5.5
	c-2.9-0.4-5.7,1.2-6.8,3.9c-0.5,1.1-11.6,27-14.6,41.3c-3,14.4-3.1,28.7-2.6,42.6c-10-7-20-14.2-29.1-22.2
	c-7.9-7-14.6-14.3-20.5-22.2c34.3-31.5,52.4-79.7,48.4-130.1c-1.9-24.3-9.1-48.2-16.1-71.4c-10.3-34.3-20.1-66.8-13.6-99.2
	c0.6-2.9-0.8-5.7-3.4-7.1c-2.6-1.3-5.7-0.8-7.7,1.4c-0.8,0.9-20,21.6-27.5,34c-7.7,12.6-12.5,26-16.7,39.3c-7-9.9-14.1-20.1-20-30.7
	c-5.3-9.5-9.3-19-12.2-28.7c41.9-19.2,76.6-63,88.9-113.2c5.8-23.6,6.5-48.7,7.1-72.8c1-35.8,1.9-69.7,18.2-98.4
	c1.4-2.5,1-5.7-1-7.8c-2-2.1-5.2-2.5-7.8-1.1c-1,0.6-25.7,14.2-36.8,23.7c-11.2,9.5-20,20.8-28.2,32.1c-3.6-11.6-7.1-23.5-9.3-35.4
	c-1.9-9.8-2.6-19.3-2.6-28.7c45.4-10.2,85-43,106.7-88.6c10.4-22,16.1-46.3,21.7-69.9c8.2-34.9,15.9-67.9,37.7-92.7
	c1.9-2.2,2.1-5.4,0.6-7.8c-1.6-2.4-4.6-3.5-7.4-2.7c-1.1,0.4-28,8.7-40.8,15.8c-12.9,7.1-23.8,16.3-34.1,25.7
	c-1.2-12.1-2.2-24.5-2-36.5c0.2-11.1,1.5-21.6,3.9-31.7c5.7,0.7,11.5,1.1,17.3,1.1c36.8,0,73.9-14.7,103.3-41.7
	c16.9-15.5,30.6-34.9,43.7-53.5c19.5-27.6,37.8-53.7,65.6-67.7c2.6-1.3,4-4.2,3.5-7.1c-0.6-2.9-2.9-5-5.8-5.2
	c-1.1-0.1-27.7-2.3-41.4-0.7c-13.6,1.6-26.2,5.7-38.4,10.2c3.2-10.8,6.6-21.7,10.9-31.9c5.6-13.3,12.7-24.9,21.5-35.3
	c0.8-0.9,1.7-2,2.7-3.2c5.1-6.2,14.7-17.8,21.4-21.4c3.1-1.6,4.5-5.2,3.4-8.5c-1.1-3.3-4.4-5.3-7.8-4.7c-38,6.2-75.9,20.8-108.4,41
	c6.3-26.6,4.7-51.3-5-69.8c-3.2-6.1-11.3-16.2-12.2-17.3c-1.6-2-4.3-2.9-6.8-2.3c-2.5,0.6-4.4,2.7-4.9,5.2
	c-5.1,28-18.9,54.6-39,74.8c-6.8,6.8-14.4,13.2-21.8,19.3c-7.6,6.3-15.5,12.8-22.7,20.1c-35.3,35.5-54.6,115.7-25.9,185.2
	c-13.1,12.8-25.1,26.7-35.6,41.2c-4.2-29-15.6-52.9-32.6-67.4c-5.5-4.7-17.4-11.4-18.8-12.1c-2.3-1.3-5.1-1.1-7.1,0.4
	c-2.1,1.5-3.1,4.1-2.6,6.7c6.1,29.6,3.1,61.3-8.6,89.2c-3.9,9.4-9,18.7-13.8,27.6c-5,9.2-10.1,18.7-14.3,28.7
	c-24.7,58.9-6.9,138.9,41.4,187.2c-8.5,13.2-16,27-22.4,41.1c-9.9-27.5-26-48.7-45.5-59.4c-6.3-3.5-19.3-7.6-20.8-8.1
	c-2.4-0.8-5.2,0-6.9,1.9c-1.7,1.9-2.2,4.7-1.2,7.1c11.9,27.8,15.3,59.4,9.5,89.1c-2,10-5,20.1-8,29.9c-3,10-6.2,20.4-8.2,31
	c-12.2,61.9,23.9,141.7,80.8,179c-5.3,18.2-8.9,36.8-10.9,55.2c-18.1-23-39.9-38.1-61.8-42.1c-7.1-1.3-20.8-1.2-22.3-1.2
	c-2.6,0-4.9,1.6-6,3.9c-1,2.4-0.6,5.1,1.1,7.1c20.1,22.6,33.2,51.6,37,81.6c1.3,10.1,1.6,20.7,1.8,30.9c0.3,10.5,0.6,21.3,1.9,32
	c7.6,60.9,67.1,124.1,133.4,142.5c1.2,17.9,4,35.5,8.1,52.6c-24.7-15.6-50.4-22.5-72.4-19c-7.2,1.1-20,5.8-21.4,6.4
	c-2.4,0.9-4.1,3.1-4.3,5.7c-0.2,2.6,1.1,5,3.4,6.3c26.5,14.6,48.6,37.5,62.2,64.5c4.6,9.1,8.4,19,12.1,28.5
	c3.8,9.8,7.6,19.9,12.5,29.5c27,53.6,92.3,90.7,156.5,90.7c4.8,0,9.7-0.2,14.5-0.7c7.7,17.9,17,35,27.6,50.8
	c-28.6-6.1-55.1-3.6-74.5,7.2c-6.3,3.5-16.7,12.4-17.9,13.4c-2,1.7-2.8,4.4-2.1,6.8c0.7,2.5,2.8,4.3,5.4,4.7
	c29.9,4.5,58.6,18.4,80.7,39c7.5,7,14.4,14.9,21.2,22.5c6.9,7.9,14.1,16,22,23.4c31.8,29.7,68.7,55.6,149.6,55.6
	c37.5,0,84.6-5.6,145-19c11,6.1,20.6,13.7,26.1,23.3l0.2-0.1c0.5,1.8,1.3,3.3,2.3,4.5l3.6,4.7c-17.6,9.5-52.1,19.6-113.6,10
	c-21.8-3.5-29.5,4.1-32.2,9c-4,7.3-2.1,16.7,5.1,27c-29.9,11.6-79.4,18.1-154.1-7.5c-3-1-6.2,0.5-7.4,3.4c-1.2,2.9,0.1,6.2,2.9,7.6
	l76.6,36.6l-21.5,24.3c-1.4,1.6-1.8,3.8-1.2,5.8c0.7,2,2.4,3.5,4.4,3.9c2.6,0.5,37.6,7.7,77.6,7.7c33.4,0,70.4-5,94.9-22.9
	c4-2.9,6-7.8,5.3-12.7c-0.7-5.1-4.2-9.3-9-11c-3.4-1.2-6.7-2.6-9.9-4.1c2.9,0.1,5.8,0.2,8.6,0.2c58.6,0,88-23,102.1-41.1
	c6.2,4.9,15.4,6.7,24.6,4.2l11-3l11,3c2.8,0.8,5.6,1.1,8.4,1.1c6.2,0,11.9-1.9,16.2-5.3c14.1,18.1,43.5,41.1,101.8,41.1
	c2.9,0,5.8-0.1,8.8-0.2c-3.2,1.4-6.4,2.8-9.9,4.1c-4.8,1.7-8.3,5.9-9,11c-0.7,4.9,1.3,9.8,5.3,12.7c24.5,17.9,61.5,22.9,94.9,22.9
	c40,0,75-7.1,77.6-7.7c2.1-0.4,3.7-1.9,4.4-3.9c0.7-2,0.2-4.2-1.2-5.8l-21.5-24.3l76.6-36.6c2.8-1.4,4.1-4.7,2.9-7.6
	c-1.2-2.9-4.5-4.4-7.4-3.4c-74.7,25.6-124.2,19.1-154.1,7.5c7.3-10.3,9.1-19.7,5.1-27c-2.7-4.9-10.4-12.5-32.2-9
	c-61.6,9.6-96.1-0.5-113.7-10l3.6-4.7c0.9-1.2,1.7-2.7,2.3-4.5l0.2,0.1c5.1-8.9,13.6-16.1,23.6-21.9c13.8,6.9,28.6,9.5,42.8,9.5
	c27.7,0,53.4-9.6,66.2-15.4c3.2-1.4,6-3.4,8.8-5.4c6.5-4.7,22.8-6.2,32-5.5c5.8,0.4,11.4,1.9,17.3,3.5c3.5,0.9,7.2,1.9,11,2.7
	c12.9,2.6,26.1,2.4,39,2.3c17.3-0.2,36.8-1.5,50-15.1c1.9-1.9,3.4-4,5-6c2.3-2.9,4.4-5.7,7-7.4c3.8-2.4,8.9-2.7,14.5-3.1
	c14.2-0.9,28.6-2.5,42.8-5c7-1.2,15-3,21.3-8.2c8.9-7.4,10.8-18,12.5-27.4c0.5-2.9,1-5.7,1.7-8.3c3.3-12.7,13-24.8,25.3-31.5
	c1.9-1,3.9-2,5.9-2.9c4.7-2.2,9.6-4.5,14-8.3c7.9-6.7,12.3-18.5,5.9-26.6c-2.5-3.2-6-4.8-8.8-5.9c-5.4-2.1-11.1-3.3-16.5-4.5
	c-4-0.9-7.8-1.7-11.4-2.8c-3.8-1.2-9.8-3.7-13.4-8c1.8-5.5,2.1-11.3,2.4-16.7c0.2-4.4,0.4-8.6,1.4-12.4c1.2-4.7,3.7-9.4,6.4-14.3
	c0.5-0.9,1-1.8,1.5-2.8c4.5-5.7,16.7-12.2,26.3-14.7c5.6-1.5,11.4-1.9,17.5-2.4c3.6-0.3,7.4-0.6,11.2-1.1c13-1.8,25.5-6.3,37.6-10.7
	c16.3-5.9,34.3-13.6,42.1-30.8c1.1-2.5,1.9-4.9,2.7-7.3c1.2-3.5,2.3-6.9,4.2-9.3c2.8-3.5,7.5-5.5,12.7-7.7
	c13.1-5.5,26.2-11.9,38.8-18.9c6.2-3.5,13.2-7.7,17.4-14.8c5.9-9.9,4.2-20.6,2.7-30c-0.5-2.9-0.9-5.7-1.1-8.4
	c-1.1-13.1,4.1-27.7,13.5-38c1.5-1.6,3-3.1,4.6-4.7c3.7-3.7,7.6-7.5,10.5-12.4c5.3-8.9,5.5-21.5-3.2-27.1c-3.4-2.2-7.3-2.6-10.2-2.7
	c-5.8-0.2-11.5,0.5-17.1,1.2c-4.1,0.5-7.9,1-11.7,1.1c-4.1,0.1-10.5-0.2-15.3-3.1c-0.1-5.8-1.7-11.4-3.3-16.5
	c-1.2-4.2-2.4-8.3-2.8-12.1c-0.4-4.8,0.4-10.1,1.3-15.6c0.6-3.8,1.2-7.7,1.5-11.6c0.1-0.9,0-1.8,0-2.7l0.1,0.1
	c4.1-4.9,8.5-8.9,11.2-11c4.6-3.6,9.7-6.2,15.1-9.1c3.2-1.7,6.6-3.4,9.9-5.4c11.2-6.7,20.9-15.8,30.3-24.6
	c12.6-11.8,26.2-26,26.7-44.9c0.1-2.7-0.1-5.3-0.4-7.8c-0.3-3.7-0.6-7.2,0.2-10.1c1.2-4.3,4.7-8,8.7-12
	c9.9-10.2,19.4-21.2,28.2-32.6c4.3-5.6,9.1-12.3,10.2-20.4c1.6-11.4-4.2-20.6-9.3-28.7c-1.6-2.5-3.1-4.9-4.3-7.3
	c-6.1-11.7-7.1-27.1-2.5-40.3c0.7-2.1,1.5-4.1,2.4-6.1c2-4.8,4.1-9.9,4.8-15.5c1.3-10.3-3.4-21.9-13.6-23.7c-4-0.7-7.7,0.5-10.5,1.5
	c-5.4,2.1-10.4,5-15.3,7.8c-3.6,2.1-6.9,4-10.4,5.6c-5.7,2.6-11,3.7-15.3,3.1c-2.4-5.2-6-9.7-9.4-13.8c-2.8-3.4-5.5-6.6-7.3-10.1
	c-2.1-3.9-3.4-8.6-4.6-13.6c1-1.3,2-2.5,2.9-3.4c3.9-4.2,8.6-7.7,13.5-11.3c2.9-2.2,6-4.4,8.9-6.9c10-8.4,18.2-18.9,26.1-29.1
	c10.6-13.6,21.7-29.8,19.2-48.5c-0.4-2.7-1-5.2-1.6-7.6c-0.9-3.6-1.7-7-1.4-10.1C4285.6,1030.5,4288.6,1026.3,4291.8,1021.7"/>
<path d="M3309.4,154.4c19.1-7.8,39.8-14.6,65.2-21.6c92.7-25.4,127.4-72.1,140.2-100.6c12.8,28.5,47.4,75.2,140.1,100.6
	c25.4,7,46.1,13.8,65.2,21.6c63.6,25.9,116.3,57.8,160.7,97.3l-157.5,190c-0.1,0.1-0.1,0.2-0.1,0.2c-64-37.8-134.5-58.8-208.5-58.8
	c-74,0-144.4,21-208.4,58.8c0-0.1-0.1-0.1-0.1-0.2l-157.5-190C3193.1,212.2,3245.7,180.3,3309.4,154.4 M4027.8,1106.5
	c0,390.7-230.2,708.6-513.2,708.6c-283,0-513.2-317.9-513.2-708.6c0-390.7,230.2-708.6,513.2-708.6
	C3797.6,397.9,4027.8,715.8,4027.8,1106.5 M3293.5,449.7c-181,114.8-306.9,366.1-306.9,656.8c0,398.9,236.9,723.4,528,723.4
	s528-324.5,528-723.4c0-290.7-125.8-541.9-306.8-656.8l160.8-194.1c2.5-3,2.2-7.5-0.7-10.2c-46.8-42.9-102.6-77.2-170.4-104.8
	c-19.6-8-40.9-15-66.8-22.2C3532.6,84,3522.4,9.7,3522.1,6.6c0-0.2-0.1-0.3-0.1-0.5c-0.1-0.3-0.1-0.6-0.2-0.9
	c-0.1-0.2-0.2-0.4-0.2-0.6c-0.1-0.3-0.2-0.5-0.3-0.7c-0.1-0.2-0.3-0.4-0.4-0.6c-0.1-0.2-0.2-0.4-0.4-0.5c-0.2-0.2-0.4-0.4-0.6-0.6
	c-0.1-0.1-0.2-0.3-0.4-0.4c-0.3-0.2-0.6-0.4-0.9-0.6c-0.1-0.1-0.2-0.1-0.3-0.2c-1.3-0.7-2.8-1.1-4.4-0.9c-2.4,0.3-4.5,1.7-5.6,3.7
	c0,0,0,0.1-0.1,0.1c-0.2,0.3-0.4,0.7-0.5,1.1c0,0.1-0.1,0.2-0.1,0.3c-0.1,0.3-0.2,0.7-0.2,1c0,0.1-0.1,0.3-0.1,0.4
	c-0.4,3.1-10.6,77.4-136.7,111.9c-26,7.1-47.2,14.2-66.8,22.2c-67.8,27.6-123.5,61.9-170.4,104.8c-2.9,2.7-3.2,7.2-0.7,10.2
	L3293.5,449.7z"/>
<path class="st1" d="M3343.9,2104.6c8.5,5.6,18.7,11.1,30.4,15.3c1,0.4,1.2,1.2,1.3,1.5c0.1,0.9-0.4,1.3-0.6,1.4
	c-40.8,29.8-123.9,19.7-152.9,15l19.7-22.3c1.2-1.4,1.7-3.3,1.4-5.1c-0.4-1.8-1.6-3.4-3.3-4.2l-29.3-14c49,7.8,83.9,0.5,107-9.2
	c4.1,4.3,12.7,12.5,24.8,20.6"/>
<path class="st1" d="M3366.4,2092.7h-18.8c-14.8-10.3-23.5-20.3-23.7-20.5c-8.5-9.5-10.5-16.9-8.8-20c1.5-2.8,7.5-5,19.9-3
	c64.3,10,101.7-0.2,122.8-12.2l13.4,17.4C3458.7,2071.7,3429.9,2095.7,3366.4,2092.7"/>
<path class="st1" d="M3686.7,2103.7c12.2-8.2,20.7-16.4,24.8-20.6c23.1,9.8,58,17,107,9.2l-29.3,14c-1.7,0.8-2.9,2.3-3.3,4.2
	c-0.4,1.8,0.1,3.7,1.4,5.1l19.7,22.3c-29,4.7-112.1,14.8-152.9-15c-0.2-0.1-0.7-0.5-0.6-1.4c0.1-0.3,0.3-1.2,1.3-1.5
	c11.7-4.1,21.9-9.7,30.4-15.3"/>
<path class="st1" d="M3694.4,2049.2c12.4-2,18.4,0.2,19.9,3c1.7,3.1-0.3,10.5-8.9,20.1c-0.1,0.2-8.8,10.1-23.6,20.4l-19.1,0
	c-63.2,2.9-92-21-104.5-38.3l13.4-17.4C3592.6,2049.1,3630,2059.3,3694.4,2049.2"/>
<path class="st1" d="M3581.6,2002.9c-0.7-1.1-1.4-2.3-2.3-3.5c-4.6-6.2-10.6-11.4-18-15.4c-1.5-0.8-3.1-1.6-4.8-2.5
	c20.9-26.6,46.9-52.6,77.6-77.3c2.6-2.1,3-5.8,0.9-8.3c-2.1-2.6-5.8-3-8.3-0.9c-16.6,13.4-32,27.1-45.9,41.2
	c-7.3-7.6-25.6-20.4-66.1-20.4c-40.5,0-58.8,12.8-66.1,20.4c-13.9-14.1-29.2-27.8-45.9-41.2c-2.6-2.1-6.3-1.6-8.3,0.9
	c-2.1,2.6-1.6,6.3,0.9,8.3c30.7,24.7,56.7,50.6,77.6,77.3c-1.7,0.8-3.3,1.7-4.8,2.5c-7.4,4-13.5,9.2-18,15.4
	c-0.9,1.2-1.6,2.4-2.3,3.5c-19.5-21.8-56.1-32.5-77.8-37.2c-6.9-1.5-11.9-7.7-11.9-14.8v-51.9c0-8.4,6.8-15.2,15.2-15.2h57.5
	c12.7,0,17.4,0,38.7-4.4c8.5-1.7,15.1-3.9,20.9-5.9c8.5-2.8,15.2-5.1,24.7-4.7c9.1-0.4,15.7,1.9,24.3,4.7c5.8,1.9,12.4,4.1,20.9,5.9
	c21.2,4.4,26,4.4,38.7,4.4h57.5c8.4,0,15.2,6.8,15.2,15.2v51.9c0,7.1-5,13.3-11.9,14.8C3637.7,1970.4,3601.1,1981.1,3581.6,2002.9"
	/>
<path class="st3" d="M4133,575.7c2.4-3.5,4.4-7.1,6.4-10.6c2.5-4.4,4.8-8.6,7.7-12.3c0.9-1.1,2-2.5,3.1-3c2.2-1,6.1,1.4,7.9,4.8
	c1.6,3.1,2.3,6.8,3,10.8c0.4,2.1,0.8,4.3,1.3,6.4c3.8,15.4,14.7,28.4,29.1,35c2.7,1.2,5.5,2.3,8.2,3.2c7.1,2.6,13.8,5.1,16.4,10.2
	c1.9,3.8,1.5,9,0.9,14c-1.4,12.5-3.7,25.1-6.6,37.6c-1.4,5.8-3,12.5-0.7,19.2c1.5,4.6,4.5,8.1,7.2,11.1c1.3,1.5,2.5,2.9,3.5,4.3
	c6.7,10,3.2,24.5-0.5,37.4c-3.2,10.8-6.4,22-11.8,31.8c-1.6,2.9-3.4,5.7-5.1,8.6c-3.3,5.2-6.6,10.6-9,16.6
	c-1.2,3.1-2.9,8.6-4.1,14.7c-1.9-1.5-4-2.7-6.1-3.6c5.2-24.2,4.4-50.4,3.7-71.7c-0.3-8.8-0.7-18.7-5-27.7c-1.2-2.4-2.6-4.6-3.9-6.7
	c-1.4-2.3-2.8-4.5-3.7-6.7c-2.8-6.6-2-14.5-1.2-22.9c1-10.7,2-21.9-4.1-31.8c-5.4-8.9-14.5-13.3-23.3-17.6
	c-8-3.9-15.6-7.7-18.7-14.3c-1.2-2.6-1.8-5.9-2.3-9.3c-0.8-4.7-1.8-10-4.7-14.7C4126.1,584.8,4130.3,579.8,4133,575.7"/>
<path class="st3" d="M3959.9,328.2c1.8-3.8,3.3-7.6,4.7-11.4c1.8-4.7,3.5-9.2,5.8-13.3c0.7-1.2,1.6-2.8,2.7-3.4
	c2.1-1.3,6.2,0.4,8.5,3.5c2,2.8,3.2,6.4,4.5,10.2c0.7,2.1,1.4,4.1,2.2,6.1c6.1,14.6,18.8,25.9,34,30.3c2.8,0.8,5.8,1.4,8.6,2
	c7.4,1.5,14.4,2.9,17.7,7.7c2.5,3.5,2.8,8.7,3,13.7c0.5,12.6,0.1,25.4-0.9,38.2c-0.5,6-1.1,12.7,2.2,19c2.2,4.3,5.7,7.3,8.8,9.9
	c1.5,1.3,2.9,2.5,4.1,3.8c8.1,8.8,6.9,23.8,5,37.1c-1.5,11.1-3.1,22.7-6.9,33.2c-1.1,3.1-2.5,6.2-3.8,9.2c-2.4,5.6-5,11.5-6.4,17.8
	c-0.6,2.6-1.2,6.3-1.5,10.5c-2.2-0.5-4.4-0.7-6.7-0.7c1.1-23.9-3.5-48.6-7.3-68.8c-1.6-8.6-3.4-18.4-9.1-26.6
	c-1.5-2.2-3.2-4.2-4.9-6.1c-1.8-2-3.5-4-4.7-6c-3.7-6.1-4.2-14-4.6-22.4c-0.6-10.8-1.2-21.9-8.8-30.9c-6.7-8-16.3-11-25.6-14
	c-8.5-2.7-16.6-5.2-20.6-11.4c-1.6-2.4-2.6-5.6-3.7-8.9c-1.5-4.5-3.2-9.6-6.9-13.9C3954.4,338.2,3957.8,332.6,3959.9,328.2"/>
<path class="st3" d="M3978,581.7c-3.6-0.8-7.3-1.3-10.8-1.9c-7.8-1.1-15.1-2.2-20.8-6c-3.2-2.1-5.9-5.2-8.8-8.4
	c-1.4-1.5-2.8-3.1-4.2-4.5c-9.2-9.3-20.6-15.7-31.7-21.9c-13.1-7.3-25.6-14.3-33.6-25.5c-6-8.3-9-18.4-12.3-29
	c-1.5-4.8-3-9.8-4.8-14.6c-6.4-17.1-16.8-32.8-30-45.4c-8.2-7.8-12.2-15.1-12.1-22.1c0.4-0.1,1-0.1,1.7-0.1
	c18.6,0.4,37.8,0.7,55.3,6.8c18.6,6.4,32.5,19.1,37.2,34c1,3,1.6,6.3,2.3,9.8c1.9,9.4,4.1,20,12.7,26.7c4.1,3.2,8.8,4.8,13,6.2
	c3.8,1.3,7.4,2.5,9.9,4.6c4.2,3.6,5.6,9.6,7.1,16.5c1.4,6.1,2.8,12.4,6.4,18c5.6,8.7,14.8,13.2,22.9,17.2c2.2,1.1,4.4,2.1,6.4,3.3
	c25,13.6,39.5,27.4,44.3,42.1l0,0c1,3.1,2,6.1,3,8.9c0.5,1.5,1.1,2.9,1.5,4.3c0.2,0.7,0.4,1.4,0.6,2.1
	C4018.9,592.7,3996.8,585.9,3978,581.7"/>
<path class="st3" d="M4113.1,829.1c-3.5-1.3-7-2.4-10.4-3.5c-7.5-2.3-14.6-4.4-19.7-9.1c-2.8-2.6-5.1-6-7.5-9.6
	c-1.1-1.7-2.3-3.4-3.5-5.1c-7.7-10.6-18-18.6-28-26.4c-11.9-9.2-23.1-18-29.4-30.2c-4.7-9.1-6.2-19.5-7.8-30.5
	c-0.7-5-1.5-10.1-2.6-15.2c-3.8-17.8-11.7-34.9-22.8-49.3c-6.9-9-9.8-16.7-8.7-23.6c0.7,0,1,0,1.7,0.2c18.3,3.1,37.3,6.4,53.7,15
	c17.4,9.1,29.3,23.8,31.7,39.2c0.5,3.1,0.7,6.5,0.9,10.1c0.5,9.5,1,20.4,8.6,28.3c3.5,3.8,8,6.1,11.9,8.1c3.6,1.8,6.9,3.6,9.1,6.1
	c3.6,4.2,4.1,10.3,4.6,17.4c0.5,6.2,1,12.6,3.7,18.7c4.2,9.4,12.7,15.3,20.1,20.4c2,1.4,4,2.8,5.9,4.2
	c17.3,13.1,26.9,31.4,27.9,52.9c-0.1,1.5-0.3,3-0.4,4.4c-0.1,1.3-0.2,2.5-0.3,3.7C4143.7,844.7,4131.1,836.1,4113.1,829.1"/>
<path class="st3" d="M4127.1,1130.6c-2.6-3-5.3-5.8-8-8.5c-5.8-5.9-11.4-11.5-14-18.8c-1.5-4.1-2.1-8.8-2.7-13.7
	c-0.3-2.3-0.6-4.6-0.9-6.8c-2.4-14.4-8.3-27.6-14-40.3c-6.8-15.3-13.3-29.7-13.7-45.5c-0.3-11.8,2.8-23.3,6.1-35.5
	c1.5-5.5,3-11.1,4.2-16.8c4.2-20,4.3-41.2,0.5-61.2c-2.4-12.6-1.7-22.1,2.1-28.9c0.2,0.1,0.4,0.3,0.7,0.5
	c15.2,11.9,30.9,24.3,42.1,40.9c12,17.9,16.5,38.9,11.9,56.3c-0.9,3.5-2.2,7.1-3.6,10.9c-3.7,10.4-7.6,21.1-4.3,32.5
	c1.6,5.4,4.6,9.9,7.2,13.9c2.4,3.6,4.8,7.1,5.7,10.8c1.6,6.3-0.8,13.4-3.3,20.8c-2.2,6.5-4.5,13.3-4.6,20.7
	c-0.2,11.4,4.6,20.9,9.3,30.1c1.2,2.4,2.4,4.8,3.5,7.2c9,19.6,16.4,40.6,10.7,62c-0.3,1.2-0.7,2.4-1.1,3.5c-0.2,0.7-0.4,1.3-0.6,2
	l0,0c-3.2,9.2-8.3,17.8-14.6,24.8c-0.1-0.2-0.1-0.3-0.2-0.5c-0.8-1.8-1.8-3.6-2.7-5.3C4145.9,1162.6,4141.7,1148,4127.1,1130.6"/>
<path class="st3" d="M4094.6,1427.5c-2-3.4-4.3-6.6-6.5-9.7c-4.8-6.8-9.4-13.2-10.8-20.8c-0.8-4.3-0.7-9-0.5-13.9
	c0.1-2.3,0.1-4.6,0.1-6.9c-0.1-14.6-3.8-28.5-7.4-42c-4.3-16.1-8.5-31.4-6.3-47.2c1.6-11.7,6.4-22.6,11.6-34.1
	c2.3-5.2,4.7-10.5,6.8-15.9c7.3-19.1,10.8-40,10.2-60.4c-0.4-12.9,1.8-22.1,6.7-28.2c0.2,0.2,0.4,0.4,0.6,0.6
	c13.1,14.2,26.7,28.8,35.1,47c9,19.6,10.1,41,2.9,57.5c-1.5,3.3-3.3,6.7-5.2,10.2c-5.3,9.7-10.9,19.6-9.4,31.4
	c0.7,5.6,3,10.5,5,14.8c1.8,4,3.6,7.7,3.9,11.5c0.5,6.5-2.9,13.1-6.6,20c-3.2,6.1-6.5,12.4-7.8,19.7c-2,11.2,1.3,21.4,4.5,31.2
	c0.8,2.6,1.6,5.1,2.4,7.6c6.9,24.6,5.1,50.1-4.5,69.3c-0.9,1.2-1.8,2.3-2.6,3.4c-3.5,4.5-7.5,8.6-12,12.2
	C4107,1464.5,4103.6,1442.5,4094.6,1427.5"/>
<path class="st3" d="M3949.7,1691.5c-0.5-3.9-1.4-7.7-2.2-11.4c-1.8-8.1-3.5-15.8-1.8-23.4c0.9-4.3,2.9-8.5,5-13
	c1-2.1,2-4.2,2.8-6.3c5.7-13.5,7.7-27.7,9.6-41.5c2.3-16.6,4.6-32.2,12.7-45.9c6-10.2,14.8-18.3,24.1-26.8c4.2-3.8,8.4-7.8,12.5-12
	c14.2-14.7,25.6-32.5,33-51.5c4.7-12,10.3-19.6,17.2-23.3c0.1,0.2,0.2,0.5,0.3,0.8c6.5,18.2,13.2,37,13.8,57
	c0.6,21.5-6.8,41.7-19.9,54c-2.7,2.5-5.6,4.8-8.8,7.3c-8.7,6.8-17.7,13.8-21,25.2c-1.6,5.4-1.4,10.8-1.3,15.6
	c0.1,4.4,0.3,8.5-0.9,12.1c-2.1,6.2-7.8,10.9-13.9,15.8c-5.4,4.4-10.9,8.9-14.9,15c-6.2,9.5-7.2,20.2-8.2,30.4
	c-0.2,2.7-0.5,5.3-0.8,7.9c-3.2,24.5-15.4,45.9-34.4,60.7c-1.6,1-3.1,2.1-4.6,3.1c-1.5,1-2.9,2-4.3,2.9c-4.1,2.7-8.5,4.8-13,6.6
	C3942.7,1732.7,3952.2,1709.7,3949.7,1691.5"/>
<path class="st3" d="M3714.1,1895.6c0.8-3.9,1.3-7.8,1.7-11.5c1-8.3,2-16.1,6-22.7c2.3-3.7,5.6-7.1,9-10.6c1.6-1.6,3.2-3.3,4.8-5
	c9.8-10.9,16.4-23.7,22.8-36c7.7-14.8,14.9-28.9,27.1-39.1c9.1-7.6,20-12.3,31.6-17.4c5.2-2.2,10.5-4.6,15.7-7.2
	c18.3-9.2,34.9-22.2,48.2-37.7c8.4-9.8,16.2-15.1,24-16.3c0,0.3,0,0.5,0,0.9c0.1,19.3,0.3,39.3-5.8,58.4
	c-6.5,20.5-20.2,37.1-36.6,44.4c-3.3,1.5-6.9,2.7-10.7,4c-10.5,3.5-21.3,7.2-28.2,16.9c-3.3,4.6-4.9,9.8-6.3,14.3
	c-1.3,4.2-2.6,8.1-4.9,11.2c-4,5.2-11,7.7-18.4,10.4c-6.5,2.3-13.2,4.8-19.1,9.2c-9.1,6.9-13.5,16.6-17.8,26
	c-1.1,2.4-2.2,4.9-3.4,7.2c-7.8,15.3-33.6,30-58.9,40.3C3706.2,1924.7,3710.7,1912.3,3714.1,1895.6"/>
<path class="st3" d="M3220.7,1770.7c19.6,13,39.9,26.4,56,42.8c31.7,32.4,50,78,48,117.4c-26.2-22.7-40.9-47.6-54.2-70.2
	c-14.7-24.8-27.3-46.1-51-58.8c-15.6-8.3-32.4-13.4-48.9-17.9l-0.1-0.2c-6.6-15.7-12.8-30.5-15.2-46.8c-0.8-5.4-1-13.4-1-20.8
	C3171.9,1738.5,3196.6,1754.8,3220.7,1770.7"/>
<path class="st3" d="M2996.5,1503.7c1.1-5.4,3.7-12.9,6.2-19.9c8.9,27.1,26.5,51,43.5,74.2c13.9,19,28.3,38.6,37.7,59.5
	c19.1,42.8,18.3,90.4-2,128.1c-1.4-9.2-2.6-18.5-3.8-28.4c-5.8-46.4-11.7-94.3-43.9-130.4c-11.8-13.2-25.7-23.8-39.7-33.7l0-0.1
	C2993.8,1536,2993.1,1519.9,2996.5,1503.7"/>
<path class="st3" d="M2922.6,1233.7c2.9-4.7,7.8-10.9,12.6-16.7c-0.7,28.5,7.9,56.9,16.2,84.5c6.8,22.5,13.8,45.8,15.6,68.7
	c3.6,45.8-12.4,89.4-42.8,118.2c-0.1-0.2-0.2-0.4-0.4-0.5c-0.3-0.5-0.7-1.1-1.1-1.8c1.7-8.5,3.6-17.1,5.5-25.6
	c10-44.9,20.4-91.3,2.3-135.9c-6.7-16.4-16.3-31.1-26.1-45.1l0-0.1C2909.3,1263.2,2914,1247.8,2922.6,1233.7"/>
<path class="st3" d="M2939.7,946.9c4.2-3.6,10.8-7.9,17.1-11.9c-9.6,26.9-10.4,56.5-11.2,85.3c-0.6,23.5-1.3,47.8-6.8,70.1
	c-11.2,45.7-42.1,85.5-79.6,103.5c-0.2-1.1-0.5-2.4-0.8-3.9c-0.1-0.5-0.2-1-0.3-1.6c4.6-8,9.4-16,14.5-24.5
	c24.1-39.8,49-80.9,45.9-128.4c-1.2-17.7-5.7-34.6-10.7-51l0.1-0.1C2917.8,970.7,2927.1,957.7,2939.7,946.9"/>
<path class="st3" d="M3015.7,670.4c4.8-2.6,12.2-5.6,19.2-8.2c-14.8,24.4-21.6,53.2-28.1,81.3c-5.4,22.9-10.9,46.6-20.7,67.3
	c-19.4,40.8-54.2,70.5-94.2,80.7c0.1-0.6,0.1-1.1,0.1-1.7c0.1-0.5,0.1-1,0.2-1.6c5.7-6.6,11.7-13.3,17.6-19.7
	c29.9-32.9,60.7-67,67.4-115.5c2.4-17.6,1.4-35-0.2-52.1l0.1-0.1C2989.5,689.3,3001.2,678.4,3015.7,670.4"/>
<path class="st3" d="M3164.9,454.7c4.9-0.6,11.9-0.6,18.6-0.4c-21.2,16.1-37.1,38.7-52.6,60.6c-12.8,18.1-26,36.9-41.9,51.5
	c-30.6,28.1-70.4,41.7-108.2,37.4c0.3-0.9,0.6-2,1-3.1c0.1-0.3,0.2-0.7,0.3-1c6.9-3.5,13.9-6.9,20.8-10.2
	c37.6-18,76.4-36.6,99.2-76.3c8.3-14.5,13.6-30.1,18.2-45.5C3135.4,461.9,3149.5,456.5,3164.9,454.7"/>
<path class="st3" d="M2965.8,427.3c6.7-6.8,14.4-13.1,21.7-19.2c7.7-6.3,15.6-12.9,22.8-20.2c18.5-18.6,32.1-42.2,39.3-67.5
	c1,1.4,1.8,2.8,2.4,3.9c13.7,26.3,4.9,60-0.5,75.3c-10.4,7.6-20.1,15.8-28.8,24.6c-35.7,36-62.5,95.9-71.9,160.8
	c-3.4,2.8-6.7,5.6-9.9,8.5C2922.1,542.1,2927,466.3,2965.8,427.3"/>
<path class="st3" d="M2809.2,722.7c3.9-9.4,8.9-18.6,13.8-27.5c5-9.3,10.2-18.8,14.4-28.8c10.8-25.9,14.8-54.7,11.7-82.6
	c1.8,1.2,3.5,2.4,4.6,3.4c24.1,20.5,28.7,57.4,29.5,74.6c-7.2,11.6-13.5,23.6-18.6,35.6c-22.5,53.5-26.6,122.9-11.1,185.8
	c-2.6,3.4-5.1,6.8-7.6,10.3C2803.4,849.2,2787.2,775.3,2809.2,722.7"/>
<path class="st3" d="M2748,1039.7c2-10,5-20,7.9-29.7c3-10.1,6.2-20.5,8.3-31.1c5.4-27.5,3.5-56.6-5.2-83.3c2,0.8,3.9,1.6,5.2,2.4
	c27.7,15.3,39.7,50.5,44,67.2c-4.7,12.9-8.5,25.8-11,38.6c-10.5,53.2,0.5,125.1,27.9,184.9c-1.8,4.7-3.6,9.4-5.2,14.2
	C2769,1167.5,2736.9,1095.7,2748,1039.7"/>
<path class="st3" d="M2769.7,1382c-1.3-10.1-1.5-20.6-1.8-30.7c-0.3-10.5-0.6-21.4-1.9-32.2c-3.5-27.8-14.4-54.8-31.1-77.4
	c2.2,0.1,4.2,0.3,5.7,0.6c31.1,5.8,53.5,35.5,62.8,50c-0.4,13.7,0.1,27.2,1.7,40.1c7.2,57.5,38.7,120,84.2,167.3
	c-0.1,4.2,0,8.3,0.1,12.5C2829.5,1493.6,2776.6,1436.8,2769.7,1382"/>
<path class="st3" d="M2902.1,1694.7c-4.6-9.1-8.3-18.8-12-28.3c-3.8-9.8-7.7-20-12.6-29.7c-12.6-25-31.9-46.8-55.2-62.6
	c2.1-0.6,4.1-1.1,5.5-1.3c31.2-5,62.3,15.5,75.9,26c4.2,13,9.2,25.6,15,37.2c26.5,52.8,74.8,99.5,132.4,128.2
	c1.5,4.5,3.1,9,4.8,13.5C2994.6,1781.4,2927.8,1745.7,2902.1,1694.7"/>
<path class="st3" d="M3132.8,1948.9c-7.4-6.9-14.4-14.8-21.1-22.4c-6.9-7.9-14.1-16.1-22.1-23.5c-20.5-19.1-46.2-32.9-73.5-39.5
	c1.8-1.3,3.4-2.4,4.7-3.2c27.6-15.5,63.8-7.1,80.3-1.9c8.4,10.8,17.4,20.8,27,29.7c51.2,47.8,137.5,79.9,230.7,85.7
	c2.6,1.6,5.4,2.8,8.5,3.5c8.5,1.8,19.4,4.6,30.5,8.7C3227.7,2020.9,3175.2,1988.4,3132.8,1948.9"/>
<path class="st1" d="M3528.8,2056.5l-14.1-3.8l-14.1,3.8c-6.2,1.7-12.7,0.3-15.5-3.3l-28.8-37.5c-1.1-1.4,0.2-5,3.3-9.2
	c3.5-4.8,8.2-8.8,14.1-12c7.5-4.1,21.7-10.7,33.7-10.7c0.5,0,1.1,0,1.6,0h0.2h11.3c12.4-0.6,27.4,6.4,35.3,10.6
	c5.8,3.1,10.6,7.2,14.1,12c3.1,4.2,4.3,7.8,3.3,9.2l-28.8,37.5C3541.4,2056.7,3534.9,2058.1,3528.8,2056.5"/>
<path class="st3" d="M3990.8,1837.3c4.2,1.3,8.4,2.2,12.6,3.1c5.2,1.1,10.1,2.2,14.6,4c0.7,0.3,2.7,1.1,3.4,1.9
	c1.1,1.4-0.4,6-4.1,9.2c-3.1,2.6-7.1,4.5-11.2,6.5c-2.2,1-4.4,2.1-6.5,3.2c-15.5,8.4-27.2,23.1-31.5,39.4c-0.8,3.1-1.4,6.2-1.9,9.2
	c-1.5,8.3-2.8,15.5-8.2,20c-3.9,3.3-9.7,4.5-15.4,5.5c-13.7,2.4-27.7,4-41.7,4.9c-6.4,0.4-13.7,0.8-20.3,5
	c-4.5,2.8-7.5,6.8-10.2,10.3c-1.4,1.8-2.7,3.5-4.1,4.9c-9.7,10.1-26.3,11.1-41,11.3c-12.2,0.1-24.8,0.3-36.3-2.1
	c-3.4-0.7-6.7-1.6-10.2-2.5c-6.2-1.7-12.6-3.4-19.6-3.9c-7.4-0.6-29.2-0.2-40.4,7.8c-2.3,1.7-4.4,3.1-6.5,4.1
	c-12.7,5.7-53.4,21.5-88.7,10c13.7-5.8,27.9-9.5,38.4-11.8c6.9-1.5,12.7-5.6,16.5-11.2c4.3,0.6,9,0.9,14.2,0.9
	c40.6,0,105-16.1,131.8-24.6c9.2-3,19.7-6.3,28.4-13.3c2.3-1.9,4.4-3.9,6.4-5.9c2.2-2.2,4.3-4.3,6.6-5.9c6.8-4.9,15.5-6.6,24.8-8.5
	c11.6-2.3,23.5-4.6,32.8-13.5c8.3-8,11.3-18.4,14.2-28.4c2.7-9.4,5.3-18.2,12.1-23.6c2.7-2.1,6.2-3.7,9.8-5.4
	c5.2-2.4,10.6-4.9,15-9.4C3978.7,1832.2,3984.2,1835.2,3990.8,1837.3"/>
<path class="st3" d="M4191.6,1545.1c4.4-0.1,8.7-0.7,12.9-1.2c5.3-0.7,10.2-1.3,15.1-1.1c0.7,0,3,0.1,3.9,0.7
	c1.4,0.9,1.6,5.8-0.9,10c-2.1,3.5-5.2,6.6-8.5,9.8c-1.7,1.7-3.5,3.4-5.1,5.2c-11.8,13-18.1,30.8-16.7,47.6c0.3,3.2,0.8,6.3,1.2,9.3
	c1.3,8.4,2.5,15.6-1.1,21.6c-2.6,4.4-7.7,7.5-12.7,10.3c-12.2,6.8-24.8,13-37.7,18.4c-5.9,2.5-12.7,5.3-17.5,11.4
	c-3.3,4.1-4.8,8.9-6.2,13.1c-0.7,2.1-1.4,4.2-2.2,6c-5.8,12.8-21.1,19.2-35,24.2c-11.5,4.1-23.3,8.4-35,10.1
	c-3.4,0.5-6.8,0.7-10.4,1c-6.4,0.5-13.1,1-19.8,2.8c-3.4,0.9-9.7,3.1-16.2,6.5c0.2-2.6,0-5.1-0.5-7.4c25.7-10.7,49.1-28.3,70-44.1
	c7.7-5.8,16.5-12.5,22.4-21.9c1.6-2.6,2.9-5.2,4.1-7.7c1.4-2.8,2.7-5.5,4.3-7.8c4.7-6.9,12.4-11.4,20.6-16.2
	c10.2-5.9,20.7-12.1,26.5-23.6c5.2-10.3,4.6-21.1,4.1-31.5c-0.5-9.8-1-19,3.7-26.3c1.9-2.9,4.6-5.5,7.5-8.3c4.1-4,8.4-8.1,11.1-13.9
	C4178.5,1544.3,4184.7,1545.3,4191.6,1545.1"/>
<path class="st3" d="M4233.3,1229.9c0.6-3.4,2.1-6.9,3.6-10.6c2.3-5.3,4.5-10.8,4.7-17.1c6.8-0.1,13.3-2.3,17.9-4.4
	c4-1.8,7.7-4,11.4-6.2c4.6-2.7,8.9-5.2,13.4-6.9c0.7-0.3,2.8-1.1,3.8-0.9c1.7,0.3,3.8,4.7,3.2,9.6c-0.5,4-2.2,8.1-3.9,12.3
	c-0.9,2.2-1.8,4.5-2.6,6.8c-5.8,16.6-4.5,35.4,3.3,50.3c1.5,2.8,3.2,5.5,4.8,8.1c4.5,7.2,8.4,13.4,7.5,20.3
	c-0.7,5.1-4.2,9.9-7.7,14.4c-8.5,11.1-17.7,21.7-27.5,31.7c-4.5,4.6-9.6,9.9-11.6,17.4c-1.4,5.1-0.9,10.1-0.6,14.5
	c0.2,2.2,0.4,4.4,0.3,6.4c-0.4,14-11.9,25.9-22.6,36c-8.9,8.3-18.2,16.9-28.2,23c-2.9,1.8-6,3.3-9.2,5c-5.7,3-11.6,6-17.1,10.3
	c-2.1,1.6-4.3,3.6-6.6,5.8c-1-2.2-2.3-4.1-3.8-5.8c17-19.2,30.6-42.9,41.8-62.4c4.8-8.4,10.3-18,12-29c0.5-3,0.6-5.9,0.7-8.7
	c0.2-3.1,0.3-6.1,0.9-8.8c1.6-8.2,7-15.4,12.6-22.9c7-9.5,14.3-19.3,15.1-32.1c0.7-11.5-4-21.2-8.6-30.6
	C4235.9,1246.8,4231.8,1238.5,4233.3,1229.9"/>
<path class="st3" d="M4281.3,1014.7c-3.7,5.3-7.9,11.3-8.7,19c-0.5,5.2,0.7,10.1,1.7,14.4c0.5,2.2,1.1,4.3,1.3,6.3
	c1.9,13.9-7.6,27.5-16.7,39.1c-7.5,9.6-15.2,19.6-24.2,27.2c-2.6,2.2-5.4,4.2-8.3,6.4c-4.4,3.3-8.9,6.7-13.1,10.8
	c-1.4-3.4-3-6.4-5-8.9c9.8-18.4,17.6-38.8,23.9-55.4c3.4-9.1,7.3-19.4,7.2-30.5c0-3-0.3-5.9-0.6-8.7c-0.3-3.1-0.7-6-0.5-8.8
	c0.3-8.4,4.4-16.3,8.8-24.7c5.4-10.5,11.1-21.3,9.8-34.1c-1.1-11.5-7.3-20.3-13.4-28.8c-5.6-8-11-15.5-10.9-24.2
	c0-3.5,0.9-7.1,1.9-11c1.4-5.5,2.7-11.2,2-17.3c6.2-1,11.9-4.1,17-7.5c3.6-2.4,7-5.2,10.3-7.9c4.1-3.4,8-6.5,12.2-8.9
	c0.6-0.4,2.5-1.5,3.7-1.5h0c1.7,0,4.5,4,4.6,9c0.1,4.1-0.9,8.3-1.9,12.8c-0.6,2.4-1.1,4.7-1.5,7.1c-3,17.3,1.1,35.7,11.2,49.1
	c1.9,2.5,4,4.9,6,7.2c5.6,6.4,10.4,11.9,10.6,18.9c0.1,5.1-2.5,10.4-5.3,15.5C4296.8,991.3,4289.4,1003.2,4281.3,1014.7"/>
<path class="st1" d="M3875.2,362.5c-0.7-1.4-1.5-2.8-2.2-4.2c-6.4-11.9-11-21.4-5.9-26.8c3.8-4,11.7-3.1,17.3-0.5
	c2.8,1.3,5.5,2.8,8.3,4.5c4.8,2.8,9.8,5.8,15.6,7.4c4.6,1.3,9.4,1.6,14,2c7.4,0.6,13.9,1,17.7,5.1c2.4,2.5,3.6,6.3,4.9,10.3
	c1.3,3.9,2.6,7.9,5.1,11.7c6.4,9.6,17.3,13.1,27,16.1c8,2.5,15.6,4.9,20.1,10.3c5,5.9,5.5,14.7,6,23.9c0.5,9.5,1.1,19.3,6.3,27.9
	c1.8,2.9,3.9,5.3,5.9,7.6c1.5,1.7,2.9,3.3,4.1,5c4.3,6.2,5.8,14.3,7.2,22.1c4.1,22.1,8.7,47,6.8,70.8c0,0-0.1,0-0.1,0.1
	c-2.8,2.2-4.7,4.8-5.9,7.6c-10.9-12.5-25.8-21.7-37.8-28.2c-2.2-1.2-4.6-2.4-6.9-3.5c-7.4-3.6-14.4-7.1-18.2-13
	c-2.5-3.9-3.6-8.9-4.9-14.2c-1.8-7.9-3.8-16.8-11-22.9c-4.2-3.6-9.3-5.3-13.7-6.8c-3.6-1.2-7.1-2.4-9.5-4.4
	c-5.2-4.1-6.8-11.7-8.4-19.8c-0.7-3.6-1.5-7.4-2.6-11c-4.6-14.7-16.2-27.5-31.9-36C3884.3,389.5,3881.8,375.1,3875.2,362.5"/>
<path class="st1" d="M4044.1,597c-0.5-1.4-1-2.9-1.6-4.5c-4.6-12.7-7.7-22.8-1.8-27.4c4.3-3.4,12-1.3,17.2,2.1
	c2.6,1.7,5,3.6,7.5,5.7c4.3,3.5,8.8,7.2,14.4,9.6c4.4,2,9,3,13.5,4c7.3,1.7,13.6,3.1,16.8,7.7c2,2.8,2.6,6.8,3.3,10.9
	c0.7,4.1,1.4,8.2,3.3,12.3c4.9,10.5,15.1,15.5,24.2,20c7.6,3.7,14.7,7.2,18.4,13.2c4,6.6,3.2,15.3,2.4,24.5
	c-0.9,9.5-1.8,19.3,2.1,28.6c1.3,3.1,3,5.8,4.7,8.4c1.2,1.9,2.4,3.7,3.3,5.6c3.3,6.8,3.6,15,3.9,23c0.8,22.1,1.6,47.1-3.7,70.1
	c-0.3,0.1-0.5,0.1-0.8,0.1c-5.7,1.6-9.6,5.1-12.3,9.7c-5.3-14-14.5-26.1-27.3-35.8c-2-1.5-4.2-3-6.3-4.5c-6.8-4.7-13.2-9.2-16-15.5
	c-1.9-4.2-2.3-9.3-2.7-14.8c-0.6-8-1.3-17.2-7.5-24.3c-3.6-4.2-8.4-6.6-12.5-8.8c-3.4-1.8-6.6-3.4-8.8-5.7c-4.5-4.8-5-12.6-5.4-20.8
	c-0.2-3.7-0.4-7.5-1-11.3c-2.4-15.2-11.9-29.6-26.1-40.3C4049.1,625.1,4048.8,610.4,4044.1,597"/>
<path class="st1" d="M4164,857.9c0.2-1.7,0.3-3.5,0.5-5.3c1-12.2,2.3-27.4,10-29.5c5-1.4,10.6,4.4,13.8,10.2c0.6,1,1.1,2.1,1.6,3.2
	c0.5,1.7,1.2,3.3,2.2,4.8c0.2,0.5,0.5,1,0.7,1.6c2.4,5.7,4.9,11.5,8.8,16.6c3.1,4.1,6.9,7.4,10.5,10.6c5.9,5.2,11,9.7,12,16.2
	c0.6,4.1-0.5,8.6-1.7,13.4c-1.1,4.4-2.2,9-2.3,14c-0.1,12.7,6.7,22.3,13.2,31.6c5.3,7.5,10.3,14.6,11.1,22.7
	c0.9,9.1-3.7,17.8-8.5,27.1c-4.8,9.2-9.8,18.8-10.2,30c-0.1,3.7,0.2,7.3,0.6,10.7c0.3,2.6,0.6,5,0.6,7.4c0.1,8.8-3.2,17.5-6.4,25.9
	c-5.9,15.6-13.1,34.6-22,51.6c-3.1-1.4-6.4-2.1-9.8-1.8c-6.1,0.7-10.7,3.7-14.2,8.1c-2.5-11.5-6.9-22.6-11.9-33.2
	c-1.2-2.6-2.5-5.1-3.7-7.6c-4.2-8.2-8.1-15.9-7.9-24.1c0.1-5.4,2-11,4-16.9c3-8.8,6.1-18,3.6-27.9c-1.4-5.9-4.7-10.6-7.5-14.8
	c-2.3-3.5-4.6-6.8-5.6-10.3c-2.2-7.5,0.9-15.9,4.1-24.8c1.4-3.9,2.9-7.9,3.9-12c4.4-16.7,1.8-36.1-6.6-53.8
	C4156.4,889.3,4162.4,874,4164,857.9"/>
<path class="st1" d="M4153.8,1456.6c4.9,1.5,6.7,9.4,6.3,16c-0.2,3.3-0.8,6.8-1.3,10.4c-1,6.1-2,12.3-1.4,18.8
	c0.5,5.1,1.9,9.9,3.2,14.6c1.6,5.6,3.1,10.6,2.7,15.3c0,0-0.4,3.4-1.2,4.8c-2.1,3.5-5,7-8.6,10.4c-3.3,3.2-6.7,6.4-9.4,10.6
	c-6.9,10.7-6.2,22.4-5.6,33.8c0.5,9.2,1,17.8-2.7,25.1c-4.1,8.1-12.6,13.1-21.6,18.4c-9,5.3-18.3,10.7-24.6,19.9
	c-2.1,3.1-3.7,6.3-5.2,9.4c-1.1,2.3-2.2,4.6-3.5,6.6c-4.6,7.5-12.1,13.1-19.3,18.5c-20.7,15.6-43.9,33-68.6,43.1
	c-0.4-0.3-0.7-0.8-1.2-1.1c-3.5-2.6-7.3-3.7-11.2-3.9c10-13.9,16.5-30.3,18.9-48c0.4-2.8,0.6-5.6,0.9-8.4c0.8-9.1,1.6-17.8,6.1-24.7
	c3-4.5,7.5-8.2,12.4-12.1c7.2-5.9,14.7-12,17.9-21.7c1.9-5.8,1.7-11.5,1.6-16.5c-0.1-4.2-0.3-8.1,0.8-11.7c2.2-7.5,9.2-13,16.7-18.8
	c3.3-2.5,6.6-5.2,9.7-8c12.6-11.8,20.8-29.5,23.1-49.1c14.5-5.3,27.8-15,37.6-27.8c0.5-0.7,2.9-3.6,3.4-4.5
	C4137.1,1466.3,4146.2,1454.3,4153.8,1456.6"/>
<path class="st1" d="M3765.2,1900.5c1.3-2.5,2.4-5.1,3.6-7.7c3.8-8.4,7.4-16.2,13.9-21.2c4.3-3.3,9.8-5.3,15.7-7.4
	c8.8-3.2,17.8-6.4,24.1-14.5c3.7-4.8,5.4-10.3,6.9-15.1c1.3-4,2.4-7.8,4.6-10.7c4.5-6.4,13-9.2,21.9-12.2c3.9-1.3,7.9-2.7,11.8-4.4
	c15.8-7,29.3-21,38-38.7c15.5-0.2,31.2-5,44.7-13.8c1.4-0.9,2.9-1.9,4.5-3c1.5-1,3-2,4.6-3l0,0.1c0.1-0.1,0.3-0.2,0.4-0.3
	c9.1-5.8,18.9-11.2,24.3-7.2c4.1,3,3.2,11,0.6,17.2c-0.8,2-1.9,4-3,6.1c-1,1.5-1.9,3-2.5,4.6l0,0c-2.7,5-5.4,10.2-6.8,15.9
	c-1.3,5-1.5,10-1.8,14.8c-0.3,5.8-0.6,11-2.5,15.3c0,0-2.2,3.6-2.7,4.1c-2.8,3-7,4.9-11.5,7c-4.2,1.9-8.5,3.9-12.4,6.9
	c-10,7.9-13.3,19.1-16.5,30c-2.6,8.8-5,17.2-10.9,22.8c-6.6,6.3-16.2,8.2-26.5,10.2c-10.2,2-20.8,4.1-29.8,10.7
	c-3,2.2-5.6,4.7-8,7.1c-1.8,1.8-3.6,3.6-5.5,5.1c-6.8,5.5-15.7,8.4-24.3,11.1c-31.8,10.2-102.7,26.8-137.6,23.6
	c0-0.3,0.1-0.6,0.1-0.9C3699.8,1947.2,3751.4,1927.7,3765.2,1900.5"/>
<path class="st1" d="M3156.6,1794.1c20,5.2,38.9,10.1,56.5,19.5c20.5,10.9,32.2,30.8,45.9,53.8c16.7,28.2,37.3,63,81.1,91.6
	c-82.6-8.6-157.4-38.1-202.9-80.6c-35.3-32.9-63.3-80.9-77.5-131.4c3.3,2.8,6.7,5.5,10.2,8.1c1.2,1,2.4,1.8,3.3,2.6
	c12.2,9.8,26.3,17.7,41.7,23.7C3128.5,1786.8,3142.8,1790.5,3156.6,1794.1"/>
<path class="st1" d="M2943.3,1531.4c11,9.7,23.1,18.2,34.8,26.3c17,11.8,33,23,46.2,37.9c29.4,33.1,35.1,78.9,40.6,123.3
	c0.7,5.6,1.4,11.4,2.2,17.1c-5.3-4.5-10.4-9.5-12.7-13.6c-1.7-3-5.3-4.3-8.6-3.1c-3.3,1.2-5.1,4.6-4.5,7.9
	c1.3,6.4,2.8,12.8,4.5,19.2c-50.1-27.7-91.7-69.5-115.3-116.4c-21.7-43.1-31.4-97.8-27.2-150.1c2.1,3.7,4.4,7.5,6.7,11.2
	c0.8,1.3,1.6,2.5,2.2,3.5C2920.5,1508.1,2930.9,1520.5,2943.3,1531.4"/>
<path class="st1" d="M2887.2,1278.4c12,16.8,23.4,32.7,30.9,51.2c16.6,40.8,6.7,85.1-2.9,128c-0.9,3.8-1.7,7.7-2.6,11.6
	c-2.7-5.1-5-10.2-5.6-14c-0.5-3.4-3.4-5.9-6.9-6c-3.6-0.1-6.4,2.5-7,5.9c-1.4,8.5-2.4,17.2-3,25.9c-38.9-44-65.5-99.3-71.9-150.3
	c-5.6-45.1,2.2-96.3,21.1-142.1l0.3-0.1c0-0.1-0.1-0.1-0.1-0.2c1.1-2.7,2.3-5.4,3.5-8.1c0.8,4.2,1.7,8.5,2.6,12.8
	c0.3,1.6,0.6,2.9,0.9,4.1c3.1,15.3,8.8,30.4,16.8,44.9C2870.4,1254.8,2878.9,1266.8,2887.2,1278.4"/>
<path class="st1" d="M2905.3,1036.6c2.9,43.3-20.9,82.6-44,120.6c-2.2,3.6-4.4,7.4-6.7,11.1c-0.4-3.9-0.5-7.6,0-10.3
	c0.6-3.4-1.3-6.7-4.5-7.9c-3.3-1.2-6.9,0.2-8.6,3.2c-3.3,6.1-6.4,12.3-9.4,18.6c-22.7-55-31.4-118.3-22.1-165.6
	c9.4-47.3,35.3-96.5,70.7-135.2c-0.6,4.2-1.1,8.6-1.5,12.9c-0.2,1.6-0.3,3-0.5,4.2c-1.8,15.6-1.2,31.7,1.9,47.9
	c2.7,14.4,7.1,28.5,11.3,42.2C2898.2,998.1,2904,1016.7,2905.3,1036.6"/>
<path class="st1" d="M3149.9,373.1c-1,1.2-1.8,2.2-2.5,3.1c-9.6,11.3-17.5,24.3-23.6,38.7c-5.4,12.8-9.3,26.1-13.1,39.1
	c-5.5,18.7-10.7,36.4-20,52.6c-20.7,36.2-56,53.1-93.4,70.9c-2.9,1.4-5.8,2.8-8.7,4.2c1.9-4.4,3.9-8.3,6-10.8c2.3-2.6,2.3-6.5,0-9.1
	c-2.3-2.7-6-3.3-9-1.5c-6.6,4-13,8.3-19.3,12.8c10.6-56.8,34.6-108.1,65.9-139.6c31.8-32,77.3-56.9,125-68.9
	C3154.7,367.4,3152.3,370.3,3149.9,373.1"/>
<path class="st1" d="M2973.3,584.3c-1.4,4-2.8,8.2-4.1,12.4c-0.5,1.5-0.9,2.9-1.3,4c-4.9,14.9-7.6,30.8-7.8,47.3
	c-0.2,14.7,1.2,29.4,2.6,43.6c2,20.6,4,40,1.2,59.8c-6.1,44.4-34.2,75.5-64.1,108.4c-1.5,1.6-3,3.3-4.5,5c0.9-4.3,2.1-8.2,3.5-10.9
	c1.7-3,0.9-6.8-1.9-8.9c-2.8-2.1-6.6-2-9.1,0.4c-8.4,7.8-16.3,16.1-23.8,24.9c-12.1-57.6-7.5-119.4,12.8-167.6
	C2895.6,658,2930.8,615.1,2973.3,584.3"/>
<path class="st1" d="M4229.1,1201.5c0,4.1-1.8,8.4-3.8,12.9c-1.8,4.2-3.6,8.5-4.5,13.4c-2.1,12.6,3.1,23.1,8.1,33.3
	c4.1,8.2,7.9,16,7.4,24.2c-0.6,9.1-6.4,17-12.6,25.4c-6.2,8.4-12.6,17-14.8,28c-0.7,3.7-0.9,7.2-1.1,10.7c-0.1,2.6-0.3,5.1-0.6,7.4
	c-1.3,8.7-6,16.8-10.4,24.6c-11.9,20.8-25.4,44.1-42.3,62.5c-5.6-0.8-10.7,0.9-15.4,4.1c2.6-16.2,1.6-33.8-3.2-51.3
	c-0.8-2.7-1.6-5.4-2.5-8.1c-2.8-8.7-5.5-17-4-25.1c1-5.3,3.7-10.5,6.6-16c4.3-8.2,8.8-16.8,8-27c-0.5-6-2.9-11.2-5-15.8
	c-1.8-3.8-3.4-7.4-3.9-11c-0.9-7.7,3.4-15.6,8-23.8c2-3.6,4.1-7.3,5.8-11.2c7-15.8,7.5-35.3,2-54.2c10.2-9.6,18-22.1,22.4-36
	c0.9-2.7,1.6-5.3,2.2-7.9c0.1-0.5,0.3-1.1,0.4-1.6c3-11.9,6.6-26.7,14.6-27.6c5.1-0.6,9.8,6,12.1,12.3c1.1,3.2,2,6.5,2.8,10.1
	c1.5,6,3,12.1,6.1,17.8c2.4,4.5,5.6,8.4,8.7,12.1C4224.8,1189.7,4229.1,1194.9,4229.1,1201.5"/>
<path class="st2" d="M1284.8,665.5c-5.7,3.8-17,23.5-28.8,14.4c-11.7-9.1-6.4-8.3-12.1,0.8c-5.7,9.1-5.7,9.5-12.1,13.6
	c-6.4,4.2-12.1,5.3-20.5,5.3c-8.3,0-10.6-0.8-15.1-10.6c-4.5-9.9-18.2,7.2-13.6,28.8c4.5,21.6,28,12.9,36.4,9.8
	c8.3-3,6.8-8,18.9-4.5c12.1,3.4,34.8-5.7,48.5-25.8C1300,677.3,1290.5,661.8,1284.8,665.5"/>
<path class="st2" d="M2208,1639c16-21.7,12.4-37.7-3.3-58.5c-13.1-17.4-31.8-32.8-40.3-33.2c-14.7-0.8-71.3,91.4-71,92.2
	c1.5,3.8,39.9,19.6,46.8,35.1C2155.6,1709.8,2196.8,1654.2,2208,1639"/>
<path class="st2" d="M610.6,1567.8c4.5-19.3-17-31.4-27.3-37.9c-10.2-6.4-31.1-29.9-43.2-12.9c-12.1,17.1-41.7,61-51.5,80.3
	c-9.8,19.3,15.9,20.1,29.5,31.1c13.6,11,12.1,10.6,15.9,18.2c6.7,13.4,43.1-28.2,48.4-34.6C595.8,1596.2,608.1,1578.2,610.6,1567.8"
	/>
<path class="st2" d="M726.5,1558.7c4.9-23.5-27.3-47.7-43.2-56.8c-15.9-9.1-12.9-8.3-20.5,0c-7.6,8.3-19.3,27.3-28.8,38.6
	c-9.5,11.4-17.1,23.9-25.8,40.1c-8.7,16.3,4.2,14,25,30.3c20.8,16.3,16.3,32.6,34.9,22.7C686.7,1623.9,721.6,1582.2,726.5,1558.7"/>
<path class="st2" d="M217.4,1125.4c-5.4,1.5-43.2,68.9-49.2,85.6c-6.1,16.7,11.4,24.2,25,33.3c13.6,9.1,14,9.1,18.9,15.9
	c19.6,27.1,31.8,7,53.7-26.3c9.5-14.4,16.7-29.7,17.5-40.4c1.9-23.9-11.4-36-22.7-44.7C249.2,1140.2,222.8,1123.9,217.4,1125.4"/>
<path class="st2" d="M2222.4,967.4c6.4-32.6-4.9-20.5-10.6-6.1c-5.7,14.4-5.3,15.5-9.8,29.5c-4.5,14-10.2,17.7-21.2,57.6
	c-11,39.9-38.4,221.1-34.9,273.5c3.5,52.3,28.4,65.8,55.1,65.6c26.7-0.3,65.7-96.2,66.1-119.4c0.5-23.1,1.5-36.7-10.6-8.3
	c-12.1,28.4-49.2,23.9-61.4-15.9C2183,1204.1,2216,999.9,2222.4,967.4"/>
<path class="st2" d="M0,1405.7c1.9,45.6,12.1,82.4,68.9,116.5c37.5,17.6,84.7,20,122.1,7.6c57.6-19,114.5-66,142.3-106.7
	c25.5-37.4,44.1-74.1,57.5-117.3c15.5-49.9,29-111.5,30.4-136.5c0.8-14,1.5-25.4,2.3-37.9c0.8-12.5,0.4-25,1.5-37.1
	c1.1-12.1,15.9-78.7,3.8-74.2c-12.1,4.4-44.7,82.6-47,105.3c-2.3,22.7-1.5,39.8-2.3,62.9c-0.8,23.1,3.4,36.4,0.8,65.9
	c-2.7,29.5-26.5,76.1-50,100c-38.5,39.1-95.1,58.3-148.5,65.1c-17.8,2.3-48.1-0.8-59.8-3.8c-33.7-8.7-70.3-27-80.3-62.9
	c-8.3-29.9-1.1-95.1,11.4-122.7c12.5-27.7,17-40.1,22-51.5c4.9-11.4,24.7-49.6,15.9-53C82.2,1122,39,1217,31.8,1233
	C7.3,1287.3,0,1346.7,0,1405.7"/>
<path class="st2" d="M743.2,1123.9c-10.2,5.3-20.5,30.7-33.3,40.1c-12.9,9.5-53.4,32.9-62.1,43.2c-8.7,10.2-8.7,12.1-15.9,21.2
	c-6.3,8-9.4,23-19.4,43.3c-16.3,41.4-49.6,64-81.2,82.2c-6,3.5-68.4,36.6-70.6,39.7c-3.8,5.3-11.4,22-1.5,24.2
	c22.1,5.1,92.3-18.8,112.1-33.3c22.7-16.7,40.1-77.6,53-95.5c12.9-17.8,27.3-29.9,40.1-34.8c12.9-4.9,34.1-18.6,43.9-31.1
	c9.8-12.5,20.4-38.6,26.5-47.7C740.9,1166.3,753.4,1118.6,743.2,1123.9"/>
<path class="st2" d="M2059.1,756.1c16-21.7,12.4-37.7-3.3-58.5c-13.1-17.4-31.8-32.8-40.3-33.2c-14.7-0.8-71.3,91.4-71,92.2
	c1.5,3.8,39.9,19.6,46.8,35.1C2006.6,826.9,2047.9,771.2,2059.1,756.1"/>
<path class="st2" d="M880.3,848.9c-6.5,5.8-33.7,70.5-37.1,82.6c-3.4,12.1-8.7,30.7-12.1,47.7c-10.2,50.8-9.6,107.5-18.9,158.3
	c-4.5,24.6-6.8,42-8.3,51.5c-1.5,9.5-13.6,53.8-1.5,38.6c12.1-15.1,27.6-59.8,37.1-82.6c9.5-22.7,17.8-74.2,20.5-97.7
	c2.6-23.5,6.1-33.7,7.6-52.3c2.6-31.4,5.4-73,13.6-103C883.3,883.7,886.8,843.1,880.3,848.9"/>
<path class="st2" d="M591.7,892.8c-6.1,3.4-25.4,56.4-32.6,77.3c-7.2,20.8-14,61.4-19.7,92.4c-5.7,31.1-9.1,75-10.6,100
	c-1.5,25-5.7,38.6-7.6,47.7c-1.9,9.1-22,56.4-0.8,37.1c21.2-19.3,50.8-133.3,56.8-167.4c6.1-34.1,7.6-76.9,10.6-100.8
	c3-23.9,4.9-36.7,7.6-48.5c2.7-11.7,4.2-14,5.3-22C601.9,900.7,597.7,889.4,591.7,892.8"/>
<path class="st2" d="M2586.6,531.5c-46.3,31-76.2,53.8-128.1,83.1c-70.2,39.5-141.6,79.8-213.9,115.5
	c-36,17.8-140.5,77.6-166.7,112.1c-26.1,34.5-34.4,43.7-53.8,84.8c-19.4,41.1-43.3,122.7-52.3,156.8
	c-15.7,59.9-30.5,88.6-87.9,121.2c-50,28.4-139.2,54.4-206.8,67.4c-67.7,13-227.1,18.1-283.3,13.6c-56.2-4.4-78.7-11.7-100-29.5
	c-21.3-17.8-12.8-47.8-19.7-47c-6.9,0.9-11.8,45.7-14.4,59.1c-2.6,13.4-7.5,29.2-4.5,61.4c3,32.1,51,46.1,89.4,53
	c38.4,6.9,149.6,6.8,237.9-4.5c88.3-11.4,236.5-50.4,306.8-118.9c5-4.9,65.1-78.3,65.9-77.3c2.4,3.1-7.9,42.8-9.1,58.3
	c-1.1,15.5-2.7,33.3-5.3,62.1c-2.7,28.8-4.9,78,26.5,106.8c31.4,28.8,63.4-7.2,76.5-31.8c8.2-15.4,25.2-53.5,30.2-77.4
	c2.4-11.7,0.6-20.5-3.7-20.3c-7.3,0.2-18.2,60.4-64.7,16.1c-11.7-16-16.8-35.4-17.1-57.7c-1-70.8,19-159.1,33-222.4
	c6.9-31,16.4-67.4,26.1-97.3c7.6-23.5,14-29.9,40.9-49.2c26.9-19.3,137.9-82.2,178-105.3c98.5-56.7,208.7-110.8,301.5-172.7
	c9.4-6.3,21.7-21.3,29.2-35.6C2604.8,541.6,2608.3,516.9,2586.6,531.5"/>
<path class="st2" d="M955.3,1085.2c-2.3-6.1-7.6-9.8-13.6,1.5c-34.5,64.6-60.5,110.3-84.9,181.8c-12.7,37.3-21.9,102.4-16.7,141.7
	c3.6,27.2,16.1,68.3,34.1,87.9c33.1,35.9,97.4,43.8,142.4,28.8c63.6-21.2,117.5-63.8,150.5-132.8c15.2-31.7,26.3-56.8,34.4-88.7
	c8.5-33.6,28.5-102.1-6-130.8c-5.5-4.5-11.7-9.4-18.3-14c-15.3-10.5-28.7-20.5-27.4-35.6c0.8-9.5,7.7-18.6,12.3-30.3
	c3.4-8.8,8.7-19.8,12.8-27.3c5.6-10.3,3.9-10.1,14.3-4.2c10.7,6.1,25,14.1,43.6,5.1c16.3-7.9,29.2-25.1,38.5-43.1
	c8.9-17.2,14.4-36.4,15.9-52.9c1.5-15.9-9.3-48.6-23-46.5c-13.7,2.1-14.3,33.8-28.7,31.2c-14.4-2.6-20.5-4.5-27.3-26.5
	c-6.8-22-2.3-78.4,2.3-99.2c4.5-20.8,3.8-15.9,4.5-24.2c0.8-8.3-5.3-22.4-10.6-11.4c-7.3,15.1-19.6,59.2-23.6,77.5
	c-5.7,25.6-8.8,59.4-12.7,84.2c-4.6,29.4-4.4,51.2-8.5,79.7c-3.6,25.2-18.3,57.6-33.1,88.4c-14.8,30.7-27,60.3-25.5,82.2
	c2.7,38.4,33.1,46.2,57.4,56.5c24.7,10.4,40.5,22.9,6.7,70.8c-44.5,63-119.7,85.9-173.9,85.7c-55.8-0.3-93.3-18.5-111-75.7
	c-4.7-15.2-3.6-46.6,4-79c9.6-40.9,27.6-83.6,36.2-101.3C935.6,1133.7,957.6,1091.3,955.3,1085.2"/>
</svg>
